<?xml version="1.0" encoding="UTF-8" standalone="no"?>
<!-- Created with Inkscape (http://www.inkscape.org/) -->

<svg
   xmlns:dc="http://purl.org/dc/elements/1.1/"
   xmlns:cc="http://creativecommons.org/ns#"
   xmlns:rdf="http://www.w3.org/1999/02/22-rdf-syntax-ns#"
   xmlns:svg="http://www.w3.org/2000/svg"
   xmlns="http://www.w3.org/2000/svg"
   xmlns:xlink="http://www.w3.org/1999/xlink"
   version="1.1"
   width="723.43201"
   height="716.93311"
   id="svg6670">
  <defs
     id="defs3">
    <linearGradient
       x1="750.44318"
       y1="20036.547"
       x2="1034.3947"
       y2="18170.58"
       id="linearGradient6395"
       xlink:href="#linearGradient6096"
       gradientUnits="userSpaceOnUse"
       gradientTransform="translate(0,20.282248)" />
    <linearGradient
       id="linearGradient6096">
      <stop
         id="stop6098"
         style="stop-color:#000000;stop-opacity:1"
         offset="0" />
      <stop
         id="stop6100"
         style="stop-color:#000000;stop-opacity:0"
         offset="1" />
    </linearGradient>
    <linearGradient
       x1="-1784.8378"
       y1="23727.916"
       x2="-1582.0154"
       y2="22774.65"
       id="linearGradient6408"
       xlink:href="#linearGradient6124"
       gradientUnits="userSpaceOnUse" />
    <linearGradient
       id="linearGradient6124">
      <stop
         id="stop6126"
         style="stop-color:#2b1100;stop-opacity:1"
         offset="0" />
      <stop
         id="stop6128"
         style="stop-color:#2b1100;stop-opacity:0"
         offset="1" />
    </linearGradient>
    <linearGradient
       id="linearGradient5569">
      <stop
         id="stop5571"
         style="stop-color:#ffffff;stop-opacity:1"
         offset="0" />
      <stop
         id="stop5573"
         style="stop-color:#ffffff;stop-opacity:0"
         offset="1" />
    </linearGradient>
    <linearGradient
       x1="2603.0212"
       y1="5559.2461"
       x2="2735.6821"
       y2="6444.8467"
       id="linearGradient6530"
       xlink:href="#linearGradient5569"
       gradientUnits="userSpaceOnUse"
       gradientTransform="translate(-816.36056,3240.0891)" />
    <linearGradient
       x1="-1247.7291"
       y1="9886.8584"
       x2="-1333.7795"
       y2="13142.428"
       id="linearGradient6461-6"
       xlink:href="#linearGradient6031-0"
       gradientUnits="userSpaceOnUse"
       gradientTransform="translate(11112.331,10666.888)" />
    <linearGradient
       id="linearGradient6031-0">
      <stop
         id="stop6033-0"
         style="stop-color:#ffffff;stop-opacity:1"
         offset="0" />
      <stop
         id="stop6035-3"
         style="stop-color:#ffffff;stop-opacity:0"
         offset="1" />
    </linearGradient>
    <linearGradient
       x1="7325"
       y1="34302.363"
       x2="7475"
       y2="32627.361"
       id="linearGradient6451-5"
       xlink:href="#linearGradient6328-6"
       gradientUnits="userSpaceOnUse"
       gradientTransform="translate(1025,-3400)" />
    <linearGradient
       id="linearGradient6328-6">
      <stop
         id="stop6330-7"
         style="stop-color:#aa0044;stop-opacity:1"
         offset="0" />
      <stop
         id="stop6332-5"
         style="stop-color:#aa0044;stop-opacity:0"
         offset="1" />
    </linearGradient>
    <filter
       color-interpolation-filters="sRGB"
       id="filter5585-8">
      <feGaussianBlur
         id="feGaussianBlur5587-3"
         stdDeviation="12.314971" />
    </filter>
    <linearGradient
       x1="669.31421"
       y1="10331.49"
       x2="669.31421"
       y2="9652.0352"
       id="linearGradient5711-3"
       xlink:href="#linearGradient5693-2"
       gradientUnits="userSpaceOnUse"
       gradientTransform="translate(2337.5291,1911.6019)" />
    <linearGradient
       id="linearGradient5693-2">
      <stop
         id="stop5695-6"
         style="stop-color:#008000;stop-opacity:1"
         offset="0" />
      <stop
         id="stop5697-4"
         style="stop-color:#008000;stop-opacity:0"
         offset="1" />
    </linearGradient>
    <linearGradient
       x1="2603.0212"
       y1="5559.2461"
       x2="2735.6821"
       y2="6444.8467"
       id="linearGradient5713-1"
       xlink:href="#linearGradient5569-2"
       gradientUnits="userSpaceOnUse"
       gradientTransform="translate(233.24577,5400.1485)" />
    <linearGradient
       id="linearGradient5569-2">
      <stop
         id="stop5571-6"
         style="stop-color:#ffffff;stop-opacity:1"
         offset="0" />
      <stop
         id="stop5573-6"
         style="stop-color:#ffffff;stop-opacity:0"
         offset="1" />
    </linearGradient>
    <linearGradient
       x1="699.73755"
       y1="10255.433"
       x2="694.66699"
       y2="9748.376"
       id="linearGradient6528-1"
       xlink:href="#linearGradient5715-4"
       gradientUnits="userSpaceOnUse"
       gradientTransform="translate(1232.1466,-283.95147)" />
    <linearGradient
       id="linearGradient5715-4">
      <stop
         id="stop5717-1"
         style="stop-color:#aa4400;stop-opacity:1"
         offset="0" />
      <stop
         id="stop5719-4"
         style="stop-color:#aa4400;stop-opacity:0"
         offset="1" />
    </linearGradient>
    <linearGradient
       x1="2603.0212"
       y1="5559.2461"
       x2="2735.6821"
       y2="6444.8467"
       id="linearGradient7594"
       xlink:href="#linearGradient5569-2"
       gradientUnits="userSpaceOnUse"
       gradientTransform="translate(-816.36056,3240.0891)" />
    <filter
       color-interpolation-filters="sRGB"
       id="filter5585">
      <feGaussianBlur
         id="feGaussianBlur5587"
         stdDeviation="12.314971" />
    </filter>
    <linearGradient
       x1="3123.4661"
       y1="10656.007"
       x2="3037.2666"
       y2="9109.4844"
       id="linearGradient6517"
       xlink:href="#linearGradient5663"
       gradientUnits="userSpaceOnUse"
       gradientTransform="translate(740.30203,415.78609)" />
    <linearGradient
       id="linearGradient5663">
      <stop
         id="stop5665"
         style="stop-color:#ff8080;stop-opacity:1"
         offset="0" />
      <stop
         id="stop5667"
         style="stop-color:#ff8080;stop-opacity:0"
         offset="1" />
    </linearGradient>
    <linearGradient
       x1="2603.0212"
       y1="5559.2461"
       x2="2735.6821"
       y2="6444.8467"
       id="linearGradient6519"
       xlink:href="#linearGradient5569-0"
       gradientUnits="userSpaceOnUse"
       gradientTransform="translate(1069.8885,3960.1089)" />
    <linearGradient
       id="linearGradient5569-0">
      <stop
         id="stop5571-1"
         style="stop-color:#ffffff;stop-opacity:1"
         offset="0" />
      <stop
         id="stop5573-60"
         style="stop-color:#ffffff;stop-opacity:0"
         offset="1" />
    </linearGradient>
    <linearGradient
       x1="2002.8719"
       y1="8754.5459"
       x2="2018.0836"
       y2="9439.0713"
       id="linearGradient6539"
       xlink:href="#linearGradient5619"
       gradientUnits="userSpaceOnUse"
       gradientTransform="translate(1729.0616,-395.50384)" />
    <linearGradient
       id="linearGradient5619">
      <stop
         id="stop5621"
         style="stop-color:#ffd42a;stop-opacity:1"
         offset="0" />
      <stop
         id="stop5623"
         style="stop-color:#ffd42a;stop-opacity:0"
         offset="1" />
    </linearGradient>
    <linearGradient
       x1="2603.0212"
       y1="5559.2461"
       x2="2735.6821"
       y2="6444.8467"
       id="linearGradient6541"
       xlink:href="#linearGradient5569-0"
       gradientUnits="userSpaceOnUse"
       gradientTransform="translate(1054.6769,2504.8576)" />
    <linearGradient
       x1="2603.0212"
       y1="5559.2461"
       x2="2735.6821"
       y2="6444.8467"
       id="linearGradient7964"
       xlink:href="#linearGradient5569-0"
       gradientUnits="userSpaceOnUse"
       gradientTransform="translate(1054.6769,2504.8576)" />
  </defs>
  <metadata
     id="metadata4">
    <rdf:RDF>
      <cc:Work
         rdf:about="">
        <dc:format>image/svg+xml</dc:format>
        <dc:type
           rdf:resource="http://purl.org/dc/dcmitype/StillImage" />
        <dc:title></dc:title>
      </cc:Work>
    </rdf:RDF>
  </metadata>
  <g
     transform="translate(2.8494055,-0.36274897)"
     id="layer1">
    <g
       transform="matrix(0.24484046,0,0,0.24484046,-385.21609,-1620.5976)"
       id="g6532">
      <path
         d="m 3704.2894,8163.5602 c -11.4187,1.9148 -17.5448,13.547 -23.6874,22.1563 -22.4926,36.2519 -36.6383,77.4061 -60.187,112.9613 -4.0547,5.893 -9.685,12.8219 -17.8443,10.445 -26.4952,-5.1618 -50.8199,-18.2429 -75.7833,-28.4131 -22.2932,-9.1392 -44.381,-20.38 -68.373,-23.8682 -7.9461,-1.5521 -16.958,1.8708 -19.6562,10 -7.3049,19.4134 -6.1778,40.9089 -7.0843,61.4059 -0.9156,30.5151 1.3988,61.7272 -3.8219,91.6878 -0.9264,5.771 -3.5601,12.4456 -10.0626,13.6563 -23.2968,6.7831 -48.01,5.7576 -72.0564,7.2496 -26.4955,1.5278 -53.6022,0.7796 -79.3186,7.8441 -8.0064,1.9407 -16.28,8.1118 -15.4374,17.25 1.154,19.3113 10.5893,36.8539 18,54.4071 12.9042,29.4019 29.2373,57.4691 38.4062,88.3429 1.9713,6.2988 2.489,13.8849 -3.5312,18.2188 -19.8375,17.0219 -44.2216,27.5026 -66.875,40.1875 -21.6336,12.0339 -44.7384,22.505 -63.1563,39.2187 -6.093,5.1452 -10.0782,14.026 -5.625,21.5 9.9082,17.5764 26.8766,29.6839 41.7097,42.7917 24.1829,20.52 50.5348,38.4428 71.6966,62.0833 4.3025,4.6308 7.3516,11.1502 4.0624,17.1563 -10.224,23.4779 -27.3204,43.2779 -41.9284,64.0609 -14.5629,20.5261 -31.2058,40.4989 -40.8216,64.0016 -3.2271,7.2803 -2.9014,17.0227 4.3438,21.75 15.7809,11.0776 35.3649,14.6653 53.6903,19.7976 30.9727,8.2347 63.2589,12.9969 92.9659,25.0462 6.0676,2.3359 12.5211,6.695 12.0938,14.0624 0.9526,26.734 -6.291,53.0581 -10.6451,79.3729 -3.9486,24.1037 -10.153,48.3635 -8.2299,72.9397 0.4517,7.6052 4.9544,15.6171 13.1562,16.7187 18.7617,3.1387 37.684,-1.996 56.1031,-5.2395 31.8715,-6.0676 63.2394,-15.8878 95.6157,-17.9792 6.5355,-0.5476 14.2151,0.6569 17,7.5 12.1275,23.0448 17.0071,49.2301 24.2812,74.125 6.89,23.7355 12.0221,48.5717 24.1876,70.3124 3.6584,7.0314 11.4409,13.0147 19.7812,10.25 19.2382,-5.7407 34.8732,-19.5544 50.917,-31.1418 25.3279,-18.8901 48.7306,-40.7377 76.4892,-56.0456 5.3765,-3.1854 12.5047,-4.7391 17.625,-0.1563 20.3445,14.8622 35.6531,35.7091 52.4516,54.3777 17.1525,19.059 32.8539,39.9066 53.9547,54.7473 6.3724,4.7097 15.8841,6.7189 22.1563,0.6875 14.7436,-13.2805 22.6714,-32.2179 32.0312,-49.3438 14.8062,-28.2955 26.4626,-58.5228 45.0938,-84.625 3.4868,-5.1794 9.1568,-9.6412 15.6874,-7.7187 24.3985,4.4409 47.0038,16.4195 69.9884,25.8365 23.9554,9.8461 47.5026,21.9958 73.2304,26.3198 7.7871,1.5212 17.239,-0.829 20.2812,-8.9688 7.1595,-17.2307 6.4429,-36.5142 7.4063,-54.875 1.1769,-32.7246 -1.4652,-65.8587 3.75,-98.2188 0.9664,-6.0877 3.3917,-13.2174 10.25,-14.5937 22.9305,-6.6979 47.2974,-5.7312 71.0572,-7.2106 26.8203,-1.5125 54.2598,-0.772 80.2865,-7.8519 7.6271,-1.9709 15.8343,-7.4901 15.4688,-16.3125 -0.6663,-19.3216 -10.2616,-36.9253 -17.5707,-54.4726 -13.0212,-29.7054 -29.6005,-58.181 -38.8355,-89.2461 -1.9881,-6.2904 -2.4057,-13.9921 3.5937,-18.2813 20.6659,-17.5198 45.9465,-28.3899 69.4692,-41.5185 21.0716,-11.7416 43.6121,-22.0162 61.2808,-38.5752 6.1062,-5.2527 9.1259,-14.4063 4.4375,-21.5626 -10.4569,-17.6511 -27.6723,-29.9461 -42.8543,-43.242 -23.4581,-19.8212 -48.8332,-37.2957 -69.4895,-60.0392 -4.1184,-4.6647 -8.1654,-10.8447 -5,-17.1562 9.9265,-23.5838 27.137,-43.2652 41.6479,-64.037 14.761,-20.8914 31.6376,-40.9512 41.3834,-64.7756 3.2143,-7.2059 2.9669,-17.0376 -4.3125,-21.75 -15.7731,-11.1038 -35.3753,-14.7132 -53.6913,-19.8246 -31.3988,-8.3991 -64.0234,-13.0202 -94.0587,-25.5191 -5.919,-2.3148 -11.3208,-6.794 -11.0312,-13.7187 -0.9367,-26.0704 6.0516,-51.5945 10.2812,-77.2813 4.0948,-24.4028 10.2697,-48.9966 8.7188,-73.875 -0.2599,-7.9389 -4.6431,-16.5823 -13.2813,-17.75 -19.5917,-3.1975 -39.2934,2.3259 -58.5,5.75 -31.0536,6.0087 -61.6518,15.4772 -93.2187,17.4687 -6.4876,0.5289 -14.1658,-0.6384 -16.9688,-7.5 -12.0249,-22.7174 -16.7242,-48.2069 -23.9018,-72.7116 -7.1004,-24.2313 -12.1389,-49.5322 -24.5982,-71.7258 -3.734,-7.4037 -12.0685,-13.2635 -20.5312,-10.0313 -18.8359,5.9319 -34.3282,19.4647 -50.1374,30.9209 -25.3736,18.8952 -48.7293,40.7723 -76.5189,56.0478 -5.4181,3.1495 -12.4239,4.7703 -17.5937,0.1876 -20.6657,-15.2155 -36.131,-36.2816 -53.149,-55.155 -17.1252,-19.0256 -32.8744,-40.0378 -54.1323,-54.5326 -3.7998,-2.2222 -8.0244,-4.2771 -12.5313,-4 z"
         id="path5627"
         style="fill:#000000;fill-opacity:1;stroke:none;filter:url(#filter5585)" />
      <path
         d="m 2617.363,5996.6686 c -13.3685,22.0805 -152.1227,7.6827 -170.0694,26.2349 -17.9466,18.5521 1.0455,156.7524 -20.5795,170.8459 -21.6249,14.0935 -140.3911,-59.0817 -164.61,-50.1536 -24.2189,8.9282 -67.0704,141.6827 -92.6688,144.9978 -25.5983,3.3151 -100.8534,-114.1442 -126.5477,-116.6084 -25.6942,-2.4642 -121.9021,98.5509 -146.4038,90.431 -24.5017,-8.12 -41.3405,-146.5991 -63.4211,-159.9676 -22.0805,-13.3685 -152.5896,35.9 -171.1418,17.9533 -18.5522,-17.9467 26.3604,-150.0182 12.2669,-171.6431 -14.0935,-21.625 -153.0549,-33.8615 -161.9831,-58.0804 -8.9281,-24.2189 88.8404,-123.7243 85.5253,-149.3227 -3.3151,-25.5984 -123.2058,-96.9161 -120.7416,-122.6104 2.4642,-25.6942 133.7243,-72.9254 141.8443,-97.4271 8.1199,-24.5017 -68.9543,-140.7754 -55.5858,-162.8559 13.3685,-22.0806 152.1226,-7.6827 170.0693,-26.2349 17.9467,-18.5522 -1.0455,-156.7524 20.5795,-170.8459 21.625,-14.0935 140.3912,59.0817 164.6101,50.1535 24.2189,-8.9281 67.0704,-141.6826 92.6687,-144.9977 25.5984,-3.3151 100.8535,114.1442 126.5477,116.6084 25.6943,2.4642 121.9022,-98.5509 146.4039,-90.431 24.5017,8.1199 41.3405,146.599 63.421,159.9675 22.0806,13.3685 152.5897,-35.8999 171.1419,-17.9532 18.5521,17.9467 -26.3604,150.0181 -12.2669,171.6431 14.0935,21.625 153.0549,33.8614 161.983,58.0803 8.9282,24.2189 -88.8403,123.7244 -85.5252,149.3227 3.3151,25.5984 123.2058,96.9162 120.7416,122.6104 -2.4642,25.6943 -133.7244,72.9254 -141.8443,97.4271 -8.1199,24.5017 68.9543,140.7755 55.5858,162.856 z"
         transform="translate(1692.8832,3100.654)"
         id="path5629"
         style="fill:#806600;fill-opacity:1;stroke:none" />
      <path
         d="m 3702.1688,8192.4898 c -24.5495,37.2062 -37.5039,81.0054 -63.6296,117.2074 -6.6717,9.2253 -14.3513,19.0685 -26.1204,21.605 -17.3046,5.1883 -34.5705,-2.3977 -50.7382,-7.8025 -34.9847,-12.4699 -67.5953,-31.6387 -103.5118,-41.3849 -7.1799,46.5101 1.9799,94.5213 -8,140.75 -2.9999,13.526 -11.2815,26.8608 -25.0313,31.5312 -19.7123,7.9628 -41.5314,7.4714 -62.3742,9.4146 -28.7012,1.3875 -57.6977,0.2504 -85.9382,5.9292 13.5845,44.5255 42.1769,83.6405 53.625,129 3.3314,13.6443 2.0051,29.5962 -8.4063,40.0624 -14.1708,15.7392 -33.8298,24.7969 -51.7886,35.4706 -25.5079,13.7378 -52.215,25.6431 -75.5864,42.9982 31.5903,33.8263 73.2876,56.5522 103.4063,91.6562 8.0422,9.9095 14.7684,22.308 12.0312,35.5 -3.5406,20.5311 -17.2656,37.1455 -28.2843,54.161 -18.0445,25.6563 -38.8539,49.4202 -53.6219,77.2766 43.8788,17.4051 92.679,19.1367 135.5937,39.0937 11.6482,5.697 22.0463,15.522 24.5313,28.7187 4.0963,19.1218 -0.52,38.7731 -2.9437,57.832 -5.0621,30.9814 -13.557,61.5604 -14.7751,92.9804 47.4394,-3.601 92.6752,-23.326 140.4688,-23.687 13.9552,0.107 28.3378,6.062 35.6058,18.537 11.8717,18.058 16.5108,39.635 22.8942,59.963 7.296,27.002 12.9034,54.437 24.1562,80.125 40.5058,-23.047 72.0357,-59.584 113.5938,-80.875 11.5264,-5.507 25.3331,-8.549 37.375,-2.813 18.3622,8.265 31.1879,24.77 44.9374,38.813 21.1423,23.454 39.7559,49.258 63.9063,69.812 27.6816,-40.771 40.4165,-90.636 72.3437,-128.5 10.8356,-11.682 28.0209,-14.763 43.1064,-11.089 22.5247,5.539 43.8844,15.227 65.1472,24.47 20.8709,9.313 41.8265,18.895 63.934,24.807 5.5314,-34.865 1.3087,-70.491 3.6743,-105.686 1.0179,-17.563 2.1452,-36.255 10.9194,-51.877 10.831,-15.6792 30.8495,-19.8387 48.6563,-21.3748 39.1948,-5.0096 79.1669,-1.3385 118.0624,-8.4688 -6.7839,-24.8438 -20.4249,-47.2687 -30.5937,-70.875 -11.0232,-23.4239 -23.2573,-47.3906 -25,-73.5938 1.0795,-19.8088 17.6085,-34.2502 33.7187,-43.4396 33.4464,-21.781 71.5517,-36.0413 103.9063,-59.5916 -23.1145,-25.6082 -52.5186,-44.0155 -78.1192,-66.8925 -14.03,-12.3279 -28.899,-25.5488 -36.0683,-43.17 -5.8539,-19.4296 5.5278,-38.5133 15.8196,-54.315 20.1485,-32.4841 47.0121,-60.5039 64.9929,-94.4037 -46.0125,-18.0466 -98.1637,-19.3274 -142.4687,-42.5626 -14.6845,-9.1837 -20.9423,-27.4119 -19.0775,-44.1238 1.6629,-44.4996 17.2164,-87.3018 19.0149,-131.6886 -46.5494,3.204 -90.789,22.4379 -137.5624,23.5937 -13.7305,0.1707 -28.2102,-4.3685 -36.5,-15.9375 -11.7788,-15.7432 -16.0981,-35.4618 -22.2802,-53.8258 -8.6578,-29.7356 -14.1756,-60.6109 -26.7824,-89.0492 -41.893,24.3235 -74.3037,62.4069 -118.3124,83.1875 -12.5036,5.4177 -27.8648,5.2895 -39.1876,-2.9687 -19.8247,-12.4681 -34.1687,-31.5131 -49.9414,-48.5151 -16.7374,-19.5145 -32.6411,-40.0906 -52.3086,-56.6725 l -0.4687,0.6876 z"
         id="path5631"
         style="fill:#d4aa00;fill-opacity:1;stroke:none" />
      <path
         d="m 3712.31,8197.5603 c -24.5495,37.2062 -37.5039,81.0054 -63.6296,117.2074 -6.6717,9.2253 -14.3513,19.0685 -26.1204,21.605 -17.3046,5.1883 -34.5705,-2.3977 -50.7382,-7.8025 -34.9847,-12.4699 -67.5953,-31.6387 -103.5118,-41.3849 -7.1799,46.5101 1.9799,94.5213 -8,140.75 -2.9999,13.526 -11.2815,26.8608 -25.0313,31.5312 -19.7123,7.9628 -41.5314,7.4714 -62.3742,9.4146 -28.7012,1.3875 -57.6977,0.2504 -85.9382,5.9292 13.5845,44.5255 42.1769,83.6405 53.625,129 3.3314,13.6443 2.0051,29.5962 -8.4063,40.0624 -14.1708,15.7392 -33.8298,24.7969 -51.7886,35.4706 -25.5079,13.7378 -52.215,25.6431 -75.5864,42.9982 31.5903,33.8263 73.2876,56.5522 103.4063,91.6562 8.0422,9.9095 14.7684,22.308 12.0312,35.5 -3.5406,20.5311 -17.2656,37.1455 -28.2843,54.161 -18.0445,25.6563 -38.8539,49.4202 -53.6219,77.2766 43.8788,17.4051 92.679,19.1367 135.5937,39.0937 11.6482,5.697 22.0463,15.522 24.5313,28.7187 4.0963,19.1218 -0.52,38.7731 -2.9437,57.832 -5.0621,30.9811 -13.557,61.5599 -14.7751,92.9806 47.4394,-3.6009 92.6752,-23.3263 140.4688,-23.6876 13.9552,0.1078 28.3378,6.0621 35.6058,18.5372 11.8717,18.0583 16.5108,39.6348 22.8942,59.9628 7.296,27.0019 12.9034,54.4372 24.1562,80.125 40.5058,-23.0469 72.0357,-59.584 113.5938,-80.875 11.5264,-5.5063 25.3331,-8.5489 37.375,-2.8124 18.3622,8.2644 31.1879,24.7695 44.9374,38.8124 21.1423,23.4539 39.7559,49.2581 63.9063,69.8126 27.6816,-40.7713 40.4165,-90.6358 72.3437,-128.5 10.8356,-11.6823 28.0209,-14.7632 43.1064,-11.0889 22.5247,5.5389 43.8844,15.2262 65.1472,24.47 20.8709,9.3131 41.8265,18.8946 63.934,24.8063 5.5314,-34.8644 1.3087,-70.4907 3.6743,-105.6858 1.0179,-17.5632 2.1452,-36.2546 10.9194,-51.8766 10.831,-15.6794 30.8495,-19.8389 48.6563,-21.375 39.1947,-5.0096 79.1668,-1.3385 118.0623,-8.4688 -6.7839,-24.8438 -20.4249,-47.2687 -30.5937,-70.875 -11.0232,-23.4239 -23.2573,-47.3906 -25,-73.5938 1.0795,-19.8088 17.6085,-34.2502 33.7187,-43.4396 33.4464,-21.781 71.5517,-36.0413 103.9063,-59.5916 -23.1145,-25.6082 -52.5186,-44.0155 -78.1192,-66.8925 -14.03,-12.3279 -28.899,-25.5488 -36.0683,-43.17 -5.8539,-19.4296 5.5278,-38.5133 15.8196,-54.315 20.1485,-32.4841 47.0121,-60.5039 64.9929,-94.4037 -46.0125,-18.0466 -98.1637,-19.3274 -142.4687,-42.5626 -14.6844,-9.1837 -20.9422,-27.4119 -19.0774,-44.1238 1.6629,-44.4996 17.2164,-87.3018 19.0148,-131.6886 -46.5493,3.204 -90.7889,22.4379 -137.5623,23.5937 -13.7305,0.1707 -28.2102,-4.3685 -36.5,-15.9375 -11.7788,-15.7432 -16.0981,-35.4618 -22.2802,-53.8258 -8.6578,-29.7356 -14.1756,-60.6109 -26.7824,-89.0492 -41.893,24.3235 -74.3037,62.4069 -118.3124,83.1875 -12.5036,5.4177 -27.8648,5.2895 -39.1876,-2.9687 -19.8247,-12.4681 -34.1687,-31.5131 -49.9414,-48.5151 -16.7374,-19.5145 -32.6411,-40.0906 -52.3086,-56.6725 l -0.4687,0.6876 z"
         id="path5633"
         style="fill:url(#linearGradient6539);fill-opacity:1;stroke:none" />
      <path
         d="m 3707.7081,8207.0138 -0.4687,0.6876 c -24.5495,37.2061 -37.4993,81.0167 -63.625,117.2187 -6.6717,9.2253 -14.3559,19.0573 -26.125,21.5937 -17.3046,5.1883 -34.5823,-2.4077 -50.75,-7.8124 -34.9847,-12.47 -67.5835,-31.6289 -103.5,-41.375 -7.1799,46.5101 1.9799,94.5213 -8,140.75 -2.9999,13.5259 -11.2814,26.8608 -25.0313,31.5312 -19.7123,7.9628 -41.5321,7.4631 -62.375,9.4062 -28.7011,1.3875 -57.697,0.2588 -85.9374,5.9376 13.5844,44.5254 42.1768,83.6405 53.625,129 3.3314,13.6442 2.0051,29.5963 -8.4063,40.0624 -14.1708,15.7392 -33.8225,24.7951 -51.7813,35.4688 -23.2633,12.529 -47.5255,23.5578 -69.3437,38.5625 116.5512,61.7752 267.9628,118.7367 394.3437,89 240.203,-56.5183 396.8877,-193.0724 668.9063,-138.8125 20.0172,-31.7392 46.2203,-59.3713 63.875,-92.6562 -46.0125,-18.0466 -98.1638,-19.3273 -142.4687,-42.5626 -14.6845,-9.1836 -20.9274,-27.413 -19.0626,-44.125 1.6629,-44.4996 17.2015,-87.3006 19,-131.6874 -46.5493,3.2039 -90.7891,22.4379 -137.5624,23.5937 -13.7306,0.1707 -28.2102,-4.3685 -36.5,-15.9375 -11.7789,-15.7432 -16.0992,-35.4485 -22.2813,-53.8125 -8.6578,-29.7356 -14.1744,-60.6242 -26.7813,-89.0625 -41.893,24.3235 -74.3038,62.4069 -118.3124,83.1875 -12.5037,5.4177 -27.8647,5.2895 -39.1876,-2.9687 -19.8247,-12.4682 -34.1648,-31.4981 -49.9374,-48.5 -16.7374,-19.5146 -32.645,-40.1057 -52.3126,-56.6876 z"
         id="path5635"
         style="fill:url(#linearGradient7964);fill-opacity:1;stroke:none" />
    </g>
    <g
       transform="matrix(0.24484046,0,0,0.24484046,-740.23477,-1975.6162)"
       id="g6510">
      <path
         d="m 3724.5717,9623.882 c -11.4187,1.9148 -17.5448,13.547 -23.6874,22.1563 -22.4926,36.2519 -36.6383,77.4061 -60.187,112.9613 -4.0547,5.893 -9.685,12.8219 -17.8443,10.445 -26.4952,-5.1618 -50.8199,-18.2429 -75.7833,-28.4131 -22.2932,-9.1392 -44.381,-20.38 -68.373,-23.8682 -7.9461,-1.5521 -16.958,1.8708 -19.6562,10 -7.3049,19.4134 -6.1778,40.9089 -7.0843,61.4059 -0.9156,30.5151 1.3988,61.7272 -3.8219,91.6878 -0.9264,5.771 -3.5601,12.4456 -10.0626,13.6563 -23.2968,6.7831 -48.01,5.7576 -72.0564,7.2496 -26.4955,1.5278 -53.6022,0.7796 -79.3186,7.8441 -8.0064,1.9407 -16.28,8.1118 -15.4374,17.25 1.154,19.3113 10.5893,36.8539 18,54.4071 12.9042,29.4019 29.2373,57.4689 38.4062,88.3429 1.9713,6.299 2.489,13.885 -3.5312,18.219 -19.8375,17.022 -44.2216,27.502 -66.875,40.187 -21.6336,12.034 -44.7384,22.505 -63.1563,39.219 -6.093,5.145 -10.0782,14.026 -5.625,21.5 9.9082,17.576 26.8766,29.684 41.7097,42.792 24.1829,20.52 50.5348,38.443 71.6966,62.083 4.3025,4.631 7.3516,11.15 4.0624,17.156 -10.224,23.478 -27.3204,43.278 -41.9284,64.061 -14.5629,20.526 -31.2058,40.499 -40.8216,64.002 -3.2271,7.28 -2.9014,17.023 4.3438,21.75 15.7809,11.077 35.3649,14.665 53.6903,19.797 30.9727,8.235 63.2589,12.997 92.9659,25.047 6.0676,2.336 12.5211,6.695 12.0938,14.062 0.9526,26.734 -6.291,53.058 -10.6451,79.373 -3.9486,24.104 -10.153,48.363 -8.2299,72.94 0.4517,7.605 4.9544,15.617 13.1562,16.718 18.7617,3.139 37.684,-1.996 56.1031,-5.239 31.8715,-6.068 63.2394,-15.888 95.6157,-17.979 6.5355,-0.548 14.2151,0.657 17,7.5 12.1275,23.044 17.0071,49.23 24.2812,74.125 6.89,23.735 12.0221,48.572 24.1876,70.312 3.6584,7.032 11.4409,13.015 19.7812,10.25 19.2382,-5.74 34.8732,-19.554 50.917,-31.142 25.3279,-18.89 48.7306,-40.737 76.4892,-56.045 5.3765,-3.186 12.5047,-4.739 17.625,-0.156 20.3445,14.862 35.6531,35.709 52.4516,54.377 17.1525,19.059 32.8539,39.907 53.9547,54.748 6.3724,4.709 15.8841,6.718 22.1563,0.687 14.7436,-13.28 22.6714,-32.218 32.0312,-49.344 14.8062,-28.295 26.4626,-58.523 45.0938,-84.625 3.4868,-5.179 9.1568,-9.641 15.6874,-7.719 24.3985,4.441 47.0038,16.42 69.9884,25.837 23.9554,9.846 47.5026,21.996 73.2304,26.32 7.7871,1.521 17.239,-0.829 20.2812,-8.969 7.1595,-17.231 6.4429,-36.514 7.4063,-54.875 1.1769,-32.725 -1.4652,-65.859 3.75,-98.219 0.9664,-6.088 3.3917,-13.217 10.25,-14.594 22.9305,-6.698 47.2974,-5.731 71.0572,-7.21 26.8203,-1.513 54.2598,-0.772 80.2865,-7.852 7.6271,-1.971 15.8343,-7.49 15.4688,-16.313 -0.6663,-19.321 -10.2616,-36.925 -17.5707,-54.472 -13.0212,-29.706 -29.6005,-58.181 -38.8355,-89.246 -1.9881,-6.291 -2.4057,-13.992 3.5937,-18.282 20.6659,-17.519 45.9465,-28.39 69.4692,-41.518 21.0716,-11.742 43.6121,-22.016 61.2808,-38.575 6.1062,-5.253 9.1259,-14.407 4.4375,-21.563 -10.4569,-17.651 -27.6723,-29.946 -42.8543,-43.242 -23.4581,-19.821 -48.8332,-37.296 -69.4895,-60.039 -4.1184,-4.665 -8.1654,-10.845 -5,-17.156 9.9265,-23.584 27.137,-43.266 41.6479,-64.037 14.761,-20.892 31.6376,-40.952 41.3834,-64.776 3.2143,-7.206 2.9669,-17.038 -4.3125,-21.75 -15.7731,-11.104 -35.3753,-14.713 -53.6913,-19.8246 -31.3988,-8.3991 -64.0234,-13.0202 -94.0587,-25.5191 -5.919,-2.3148 -11.3208,-6.794 -11.0312,-13.7187 -0.9367,-26.0704 6.0516,-51.5945 10.2812,-77.2813 4.0948,-24.4028 10.2697,-48.9966 8.7188,-73.875 -0.2599,-7.9389 -4.6431,-16.5823 -13.2813,-17.75 -19.5917,-3.1975 -39.2934,2.3259 -58.5,5.75 -31.0536,6.0087 -61.6518,15.4772 -93.2187,17.4687 -6.4876,0.5289 -14.1658,-0.6384 -16.9688,-7.5 -12.0249,-22.7174 -16.7242,-48.2069 -23.9018,-72.7116 -7.1004,-24.2313 -12.1389,-49.5322 -24.5982,-71.7258 -3.734,-7.4037 -12.0685,-13.2635 -20.5312,-10.0313 -18.8359,5.9319 -34.3282,19.4647 -50.1374,30.9209 -25.3736,18.8952 -48.7293,40.7723 -76.5189,56.0478 -5.4181,3.1495 -12.4239,4.7703 -17.5937,0.1876 -20.6657,-15.2155 -36.131,-36.2816 -53.149,-55.155 -17.1252,-19.0256 -32.8744,-40.0378 -54.1323,-54.5326 -3.7998,-2.2222 -8.0244,-4.2771 -12.5313,-4 z"
         id="path5671"
         style="fill:#000000;fill-opacity:1;stroke:none;filter:url(#filter5585)" />
      <path
         d="m 2617.363,5996.6686 c -13.3685,22.0805 -152.1227,7.6827 -170.0694,26.2349 -17.9466,18.5521 1.0455,156.7524 -20.5795,170.8459 -21.6249,14.0935 -140.3911,-59.0817 -164.61,-50.1536 -24.2189,8.9282 -67.0704,141.6827 -92.6688,144.9978 -25.5983,3.3151 -100.8534,-114.1442 -126.5477,-116.6084 -25.6942,-2.4642 -121.9021,98.5509 -146.4038,90.431 -24.5017,-8.12 -41.3405,-146.5991 -63.4211,-159.9676 -22.0805,-13.3685 -152.5896,35.9 -171.1418,17.9533 -18.5522,-17.9467 26.3604,-150.0182 12.2669,-171.6431 -14.0935,-21.625 -153.0549,-33.8615 -161.9831,-58.0804 -8.9281,-24.2189 88.8404,-123.7243 85.5253,-149.3227 -3.3151,-25.5984 -123.2058,-96.9161 -120.7416,-122.6104 2.4642,-25.6942 133.7243,-72.9254 141.8443,-97.4271 8.1199,-24.5017 -68.9543,-140.7754 -55.5858,-162.8559 13.3685,-22.0806 152.1226,-7.6827 170.0693,-26.2349 17.9467,-18.5522 -1.0455,-156.7524 20.5795,-170.8459 21.625,-14.0935 140.3912,59.0817 164.6101,50.1535 24.2189,-8.9281 67.0704,-141.6826 92.6687,-144.9977 25.5984,-3.3151 100.8535,114.1442 126.5477,116.6084 25.6943,2.4642 121.9022,-98.5509 146.4039,-90.431 24.5017,8.1199 41.3405,146.599 63.421,159.9675 22.0806,13.3685 152.5897,-35.8999 171.1419,-17.9532 18.5521,17.9467 -26.3604,150.0181 -12.2669,171.6431 14.0935,21.625 153.0549,33.8614 161.983,58.0803 8.9282,24.2189 -88.8403,123.7244 -85.5252,149.3227 3.3151,25.5984 123.2058,96.9162 120.7416,122.6104 -2.4642,25.6943 -133.7244,72.9254 -141.8443,97.4271 -8.1199,24.5017 68.9543,140.7755 55.5858,162.856 z"
         transform="translate(1713.1654,4560.9758)"
         id="path5673"
         style="fill:#be2929;fill-opacity:1;stroke:none" />
      <path
         d="m 3727.5217,9657.8821 c -24.5495,37.2062 -37.5039,81.0054 -63.6296,117.2074 -6.6717,9.2253 -14.3513,19.0685 -26.1204,21.605 -17.3046,5.1883 -34.5705,-2.3977 -50.7382,-7.8025 -34.9847,-12.4699 -67.5953,-31.6387 -103.5118,-41.3849 -7.1799,46.5101 1.9799,94.5213 -8,140.75 -2.9999,13.526 -11.2815,26.8608 -25.0313,31.5312 -19.7123,7.9628 -41.5314,7.4714 -62.3742,9.4146 -28.7012,1.3875 -57.6977,0.2504 -85.9382,5.9292 13.5845,44.5255 42.1769,83.6409 53.625,128.9999 3.3314,13.644 2.0051,29.596 -8.4063,40.063 -14.1708,15.739 -33.8298,24.796 -51.7886,35.47 -25.5079,13.738 -52.215,25.643 -75.5864,42.998 31.5903,33.827 73.2876,56.553 103.4063,91.657 8.0422,9.909 14.7684,22.308 12.0312,35.5 -3.5406,20.531 -17.2656,37.145 -28.2843,54.161 -18.0445,25.656 -38.8539,49.42 -53.6219,77.276 43.8788,17.405 92.679,19.137 135.5937,39.094 11.6482,5.697 22.0463,15.522 24.5313,28.718 4.0963,19.122 -0.52,38.773 -2.9437,57.832 -5.0621,30.982 -13.557,61.561 -14.7751,92.981 47.4394,-3.601 92.6752,-23.326 140.4688,-23.687 13.9552,0.107 28.3378,6.062 35.6058,18.537 11.8717,18.058 16.5108,39.635 22.8942,59.963 7.296,27.002 12.9034,54.437 24.1562,80.125 40.5058,-23.047 72.0357,-59.584 113.5938,-80.875 11.5264,-5.507 25.3331,-8.549 37.375,-2.813 18.3622,8.265 31.1879,24.77 44.9374,38.813 21.1423,23.454 39.7559,49.258 63.9063,69.812 27.6816,-40.771 40.4165,-90.636 72.3437,-128.5 10.8356,-11.682 28.0209,-14.763 43.1064,-11.089 22.5247,5.539 43.8844,15.227 65.1472,24.47 20.8709,9.313 41.8265,18.895 63.934,24.807 5.5314,-34.865 1.3087,-70.491 3.6743,-105.686 1.0179,-17.563 2.1452,-36.255 10.9194,-51.877 10.831,-15.679 30.8495,-19.839 48.6563,-21.375 39.1948,-5.01 79.1669,-1.339 118.0624,-8.469 -6.7839,-24.844 -20.4249,-47.269 -30.5937,-70.875 -11.0232,-23.424 -23.2573,-47.39 -25,-73.593 1.0795,-19.809 17.6085,-34.251 33.7187,-43.44 33.4464,-21.781 71.5517,-36.041 103.9063,-59.592 -23.1145,-25.608 -52.5186,-44.015 -78.1192,-66.892 -14.03,-12.328 -28.899,-25.549 -36.0683,-43.17 -5.8539,-19.43 5.5278,-38.513 15.8196,-54.315 20.1485,-32.484 47.0121,-60.504 64.9929,-94.404 -46.0125,-18.046 -98.1637,-19.327 -142.4687,-42.5625 -14.6845,-9.1837 -20.9423,-27.4119 -19.0775,-44.1238 1.6629,-44.4996 17.2164,-87.3018 19.0149,-131.6886 -46.5494,3.204 -90.789,22.4379 -137.5624,23.5937 -13.7305,0.1707 -28.2102,-4.3685 -36.5,-15.9375 -11.7788,-15.7432 -16.0981,-35.4618 -22.2802,-53.8258 -8.6578,-29.7356 -14.1756,-60.6109 -26.7824,-89.0492 -41.893,24.3235 -74.3037,62.4069 -118.3124,83.1875 -12.5036,5.4177 -27.8648,5.2895 -39.1876,-2.9687 -19.8247,-12.4681 -34.1687,-31.5131 -49.9414,-48.5151 -16.7374,-19.5145 -32.6411,-40.0906 -52.3086,-56.6725 l -0.4687,0.6876 z"
         id="path5675"
         style="fill:#ff0000;fill-opacity:1;stroke:none" />
      <path
         d="m 3722.4512,9652.8116 c -24.5495,37.2062 -37.5039,81.0054 -63.6296,117.2074 -6.6717,9.2253 -14.3513,19.0685 -26.1204,21.605 -17.3046,5.1883 -34.5705,-2.3977 -50.7382,-7.8025 -34.9847,-12.4699 -67.5953,-31.6387 -103.5118,-41.3849 -7.1799,46.5101 1.9799,94.5213 -8,140.75 -2.9999,13.526 -11.2815,26.8608 -25.0313,31.5312 -19.7123,7.9628 -41.5314,7.4714 -62.3742,9.4146 -28.7012,1.3875 -57.6977,0.2504 -85.9382,5.9292 13.5845,44.5255 42.1769,83.6404 53.625,129.0004 3.3314,13.644 2.0051,29.596 -8.4063,40.062 -14.1708,15.739 -33.8298,24.797 -51.7886,35.471 -25.5079,13.737 -52.215,25.643 -75.5864,42.998 31.5903,33.826 73.2876,56.552 103.4063,91.656 8.0422,9.91 14.7684,22.308 12.0312,35.5 -3.5406,20.531 -17.2656,37.146 -28.2843,54.161 -18.0445,25.656 -38.8539,49.42 -53.6219,77.276 43.8788,17.406 92.679,19.137 135.5937,39.094 11.6482,5.697 22.0463,15.522 24.5313,28.719 4.0963,19.122 -0.52,38.773 -2.9437,57.832 -5.0621,30.981 -13.557,61.56 -14.7751,92.98 47.4394,-3.6 92.6752,-23.326 140.4688,-23.687 13.9552,0.108 28.3378,6.062 35.6058,18.537 11.8717,18.058 16.5108,39.635 22.8942,59.962 7.296,27.002 12.9034,54.438 24.1562,80.125 40.5058,-23.046 72.0357,-59.584 113.5938,-80.875 11.5264,-5.506 25.3331,-8.548 37.375,-2.812 18.3622,8.264 31.1879,24.77 44.9374,38.812 21.1423,23.454 39.7559,49.259 63.9063,69.813 27.6816,-40.771 40.4165,-90.636 72.3437,-128.5 10.8356,-11.682 28.0209,-14.763 43.1064,-11.088 22.5247,5.538 43.8844,15.226 65.1472,24.47 20.8709,9.312 41.8265,18.894 63.934,24.805 5.5314,-34.864 1.3087,-70.49 3.6743,-105.685 1.0179,-17.563 2.1452,-36.255 10.9194,-51.877 10.831,-15.679 30.8495,-19.838 48.6563,-21.375 39.1947,-5.009 79.1668,-1.338 118.0623,-8.468 -6.7839,-24.844 -20.4249,-47.269 -30.5937,-70.875 -11.0232,-23.424 -23.2573,-47.391 -25,-73.594 1.0795,-19.809 17.6085,-34.25 33.7187,-43.44 33.4464,-21.781 71.5517,-36.041 103.9063,-59.591 -23.1145,-25.608 -52.5186,-44.016 -78.1192,-66.893 -14.03,-12.328 -28.899,-25.548 -36.0683,-43.17 -5.8539,-19.429 5.5278,-38.513 15.8196,-54.315 20.1485,-32.484 47.0121,-60.504 64.9929,-94.403 -46.0125,-18.047 -98.1637,-19.328 -142.4687,-42.563 -14.6844,-9.1837 -20.9422,-27.4119 -19.0774,-44.1238 1.6629,-44.4996 17.2164,-87.3018 19.0148,-131.6886 -46.5493,3.204 -90.7889,22.4379 -137.5623,23.5937 -13.7305,0.1707 -28.2102,-4.3685 -36.5,-15.9375 -11.7788,-15.7432 -16.0981,-35.4618 -22.2802,-53.8258 -8.6578,-29.7356 -14.1756,-60.6109 -26.7824,-89.0492 -41.893,24.3235 -74.3037,62.4069 -118.3124,83.1875 -12.5036,5.4177 -27.8648,5.2895 -39.1876,-2.9687 -19.8247,-12.4681 -34.1687,-31.5131 -49.9414,-48.5151 -16.7374,-19.5145 -32.6411,-40.0906 -52.3086,-56.6725 l -0.4687,0.6876 z"
         id="path5677"
         style="fill:url(#linearGradient6517);fill-opacity:1;stroke:none" />
      <path
         d="m 3722.9198,9662.2651 -0.4687,0.6876 c -24.5495,37.2061 -37.4993,81.0167 -63.625,117.2187 -6.6717,9.2253 -14.3559,19.0573 -26.125,21.5937 -17.3046,5.1883 -34.5823,-2.4077 -50.75,-7.8124 -34.9847,-12.47 -67.5835,-31.6289 -103.5,-41.375 -7.1799,46.5101 1.9799,94.5213 -8,140.75 -2.9999,13.5259 -11.2814,26.8608 -25.0313,31.5312 -19.7123,7.9628 -41.5321,7.4631 -62.375,9.4062 -28.7011,1.3875 -57.697,0.2588 -85.9374,5.9376 13.5844,44.5254 42.1768,83.6403 53.625,129.0003 3.3314,13.644 2.0051,29.596 -8.4063,40.062 -14.1708,15.739 -33.8225,24.795 -51.7813,35.469 -23.2633,12.529 -47.5255,23.558 -69.3437,38.562 116.5512,61.776 267.9628,118.737 394.3437,89 240.203,-56.518 396.8877,-193.072 668.9063,-138.812 20.0172,-31.739 46.2203,-59.371 63.875,-92.656 -46.0125,-18.047 -98.1638,-19.328 -142.4687,-42.5629 -14.6845,-9.1836 -20.9274,-27.413 -19.0626,-44.125 1.6629,-44.4996 17.2015,-87.3006 19,-131.6874 -46.5493,3.2039 -90.7891,22.4379 -137.5624,23.5937 -13.7306,0.1707 -28.2102,-4.3685 -36.5,-15.9375 -11.7789,-15.7432 -16.0992,-35.4485 -22.2813,-53.8125 -8.6578,-29.7356 -14.1744,-60.6242 -26.7813,-89.0625 -41.893,24.3235 -74.3038,62.4069 -118.3124,83.1875 -12.5037,5.4177 -27.8647,5.2895 -39.1876,-2.9687 -19.8247,-12.4682 -34.1648,-31.4981 -49.9374,-48.5 -16.7374,-19.5146 -32.645,-40.1057 -52.3126,-56.6876 z"
         id="path5679"
         style="fill:url(#linearGradient6519);fill-opacity:1;stroke:none" />
    </g>
    <g
       transform="matrix(0.24484046,0,0,0.24484046,-285.43198,-2140.5174)"
       id="g6521">
      <path
         d="m 1833.2521,8903.8622 c -11.4187,1.9148 -17.5448,13.547 -23.6874,22.1563 -22.4926,36.2519 -36.6383,77.4061 -60.187,112.9613 -4.0547,5.893 -9.685,12.8219 -17.8443,10.445 -26.4952,-5.1618 -50.8199,-18.2429 -75.7833,-28.4131 -22.2932,-9.1392 -44.381,-20.38 -68.373,-23.8682 -7.9461,-1.5521 -16.958,1.8708 -19.6562,10 -7.3049,19.4134 -6.1778,40.9089 -7.0843,61.4059 -0.9156,30.5151 1.3988,61.7272 -3.8219,91.6878 -0.9264,5.771 -3.5601,12.4456 -10.0626,13.6563 -23.2968,6.7831 -48.01,5.7576 -72.0564,7.2496 -26.4955,1.5278 -53.6022,0.7796 -79.3186,7.8441 -8.0064,1.9407 -16.28,8.1118 -15.4374,17.25 1.154,19.3113 10.5893,36.8539 18,54.4071 12.9042,29.4019 29.2373,57.4691 38.4062,88.3429 1.9713,6.2988 2.489,13.8849 -3.5312,18.2188 -19.8375,17.0219 -44.2216,27.5026 -66.875,40.1875 -21.6336,12.0339 -44.7384,22.505 -63.1563,39.2187 -6.093,5.1452 -10.0782,14.026 -5.625,21.5 9.9082,17.5764 26.8766,29.6839 41.7097,42.7917 24.1829,20.52 50.5348,38.4428 71.6966,62.0833 4.3025,4.6308 7.3516,11.1502 4.0624,17.1563 -10.224,23.4779 -27.3204,43.2779 -41.9284,64.0609 -14.5629,20.5261 -31.2058,40.4989 -40.8216,64.0016 -3.2271,7.2803 -2.9014,17.0227 4.3438,21.75 15.7809,11.0776 35.3649,14.6653 53.6903,19.7976 30.9727,8.2347 63.2589,12.9969 92.9659,25.0462 6.0676,2.3359 12.5211,6.695 12.0938,14.0624 0.9526,26.734 -6.291,53.0581 -10.6451,79.3729 -3.9486,24.1037 -10.153,48.3635 -8.2299,72.9397 0.4517,7.6052 4.9544,15.6171 13.1562,16.7187 18.7617,3.1387 37.684,-1.996 56.1031,-5.2395 31.8715,-6.0676 63.2394,-15.8878 95.6157,-17.9792 6.5355,-0.5476 14.2151,0.6569 17,7.5 12.1275,23.0448 17.0071,49.2302 24.2812,74.1252 6.89,23.735 12.0221,48.572 24.1876,70.312 3.6584,7.032 11.4409,13.015 19.7812,10.25 19.2382,-5.74 34.8732,-19.554 50.917,-31.142 25.3279,-18.89 48.7306,-40.737 76.4892,-56.045 5.3765,-3.186 12.5047,-4.739 17.625,-0.156 20.3445,14.862 35.6531,35.709 52.4516,54.377 17.1525,19.059 32.8539,39.907 53.9547,54.748 6.3724,4.709 15.8841,6.718 22.1563,0.687 14.7436,-13.28 22.6714,-32.218 32.0312,-49.344 14.8062,-28.295 26.4626,-58.523 45.0938,-84.6248 3.4868,-5.1794 9.1568,-9.6412 15.6874,-7.7187 24.3985,4.4409 47.0038,16.4195 69.9884,25.8365 23.9554,9.846 47.5026,21.996 73.2304,26.32 7.7871,1.521 17.239,-0.829 20.2812,-8.969 7.1595,-17.231 6.4429,-36.5142 7.4063,-54.875 1.1769,-32.7246 -1.4652,-65.8587 3.75,-98.2188 0.9664,-6.0877 3.3917,-13.2174 10.25,-14.5937 22.9305,-6.6979 47.2974,-5.7312 71.0572,-7.2106 26.8203,-1.5125 54.2598,-0.772 80.2865,-7.8519 7.6271,-1.9709 15.8343,-7.4901 15.4688,-16.3125 -0.6663,-19.3216 -10.2616,-36.9253 -17.5707,-54.4726 -13.0212,-29.7054 -29.6005,-58.181 -38.8355,-89.2461 -1.9881,-6.2904 -2.4057,-13.9921 3.5937,-18.2813 20.6659,-17.5198 45.9465,-28.3899 69.4692,-41.5185 21.0716,-11.7416 43.6121,-22.0162 61.2808,-38.5752 6.1062,-5.2527 9.1259,-14.4063 4.4375,-21.5626 -10.4569,-17.6511 -27.6723,-29.9461 -42.8543,-43.242 -23.4581,-19.8212 -48.8332,-37.2957 -69.4895,-60.0392 -4.1184,-4.6647 -8.1654,-10.8447 -5,-17.1562 9.9265,-23.5838 27.137,-43.2652 41.6479,-64.037 14.761,-20.8914 31.6376,-40.9512 41.3834,-64.7756 3.2143,-7.2059 2.9669,-17.0376 -4.3125,-21.75 -15.7731,-11.1038 -35.3753,-14.7132 -53.6913,-19.8246 -31.3988,-8.3991 -64.0234,-13.0202 -94.0587,-25.5191 -5.919,-2.3148 -11.3208,-6.794 -11.0312,-13.7187 -0.9367,-26.0704 6.0516,-51.5945 10.2812,-77.2813 4.0948,-24.4028 10.2697,-48.9966 8.7188,-73.875 -0.2599,-7.9389 -4.6431,-16.5823 -13.2813,-17.75 -19.5917,-3.1975 -39.2934,2.3259 -58.5,5.75 -31.0536,6.0087 -61.6518,15.4772 -93.2187,17.4687 -6.4876,0.5289 -14.1658,-0.6384 -16.9688,-7.5 -12.0249,-22.7174 -16.7242,-48.2069 -23.9018,-72.7116 -7.1004,-24.2313 -12.1389,-49.5322 -24.5982,-71.7258 -3.734,-7.4037 -12.0685,-13.2635 -20.5312,-10.0313 -18.8359,5.9319 -34.3282,19.4647 -50.1374,30.9209 -25.3736,18.8952 -48.7293,40.7723 -76.5189,56.0478 -5.4181,3.1495 -12.4239,4.7703 -17.5937,0.1876 -20.6657,-15.2155 -36.131,-36.2816 -53.149,-55.155 -17.1252,-19.0256 -32.8744,-40.0378 -54.1323,-54.5326 -3.7998,-2.2222 -8.0244,-4.2771 -12.5313,-4 z"
         id="path5603"
         style="fill:#000000;fill-opacity:1;stroke:none;filter:url(#filter5585-8)" />
      <path
         d="m 2617.363,5996.6686 c -13.3685,22.0805 -152.1227,7.6827 -170.0694,26.2349 -17.9466,18.5521 1.0455,156.7524 -20.5795,170.8459 -21.6249,14.0935 -140.3911,-59.0817 -164.61,-50.1536 -24.2189,8.9282 -67.0704,141.6827 -92.6688,144.9978 -25.5983,3.3151 -100.8534,-114.1442 -126.5477,-116.6084 -25.6942,-2.4642 -121.9021,98.5509 -146.4038,90.431 -24.5017,-8.12 -41.3405,-146.5991 -63.4211,-159.9676 -22.0805,-13.3685 -152.5896,35.9 -171.1418,17.9533 -18.5522,-17.9467 26.3604,-150.0182 12.2669,-171.6431 -14.0935,-21.625 -153.0549,-33.8615 -161.9831,-58.0804 -8.9281,-24.2189 88.8404,-123.7243 85.5253,-149.3227 -3.3151,-25.5984 -123.2058,-96.9161 -120.7416,-122.6104 2.4642,-25.6942 133.7243,-72.9254 141.8443,-97.4271 8.1199,-24.5017 -68.9543,-140.7754 -55.5858,-162.8559 13.3685,-22.0806 152.1226,-7.6827 170.0693,-26.2349 17.9467,-18.5522 -1.0455,-156.7524 20.5795,-170.8459 21.625,-14.0935 140.3912,59.0817 164.6101,50.1535 24.2189,-8.9281 67.0704,-141.6826 92.6687,-144.9977 25.5984,-3.3151 100.8535,114.1442 126.5477,116.6084 25.6943,2.4642 121.9022,-98.5509 146.4039,-90.431 24.5017,8.1199 41.3405,146.599 63.421,159.9675 22.0806,13.3685 152.5897,-35.8999 171.1419,-17.9532 18.5521,17.9467 -26.3604,150.0181 -12.2669,171.6431 14.0935,21.625 153.0549,33.8614 161.983,58.0803 8.9282,24.2189 -88.8403,123.7244 -85.5252,149.3227 3.3151,25.5984 123.2058,96.9162 120.7416,122.6104 -2.4642,25.6943 -133.7244,72.9254 -141.8443,97.4271 -8.1199,24.5017 68.9543,140.7755 55.5858,162.856 z"
         transform="translate(-178.15419,3840.956)"
         id="path5605"
         style="fill:#833c0d;fill-opacity:1;stroke:none" />
      <path
         d="m 1836.2021,8937.8623 c -24.5495,37.2062 -37.5039,81.0054 -63.6296,117.2076 -6.6717,9.225 -14.3513,19.068 -26.1204,21.605 -17.3046,5.188 -34.5705,-2.398 -50.7382,-7.803 -34.9847,-12.47 -67.5953,-31.6384 -103.5118,-41.3846 -7.1799,46.5096 1.9799,94.5216 -8,140.7496 -2.9999,13.526 -11.2815,26.861 -25.0313,31.532 -19.7123,7.963 -41.5314,7.471 -62.3742,9.414 -28.7012,1.388 -57.6977,0.251 -85.9382,5.93 13.5845,44.525 42.1769,83.64 53.625,129 3.3314,13.644 2.0051,29.596 -8.4063,40.062 -14.1708,15.739 -33.8298,24.797 -51.7886,35.471 -25.5079,13.737 -52.215,25.643 -75.5864,42.998 31.5903,33.826 73.2876,56.552 103.4063,91.656 8.0422,9.91 14.7684,22.308 12.0312,35.5 -3.5406,20.531 -17.2656,37.146 -28.2843,54.161 -18.0445,25.656 -38.8539,49.42 -53.6219,77.277 43.8788,17.405 92.679,19.136 135.5937,39.094 11.6482,5.697 22.0463,15.522 24.5313,28.718 4.0963,19.122 -0.52,38.773 -2.9437,57.832 -5.0621,30.982 -13.557,61.561 -14.7751,92.981 47.4394,-3.601 92.6752,-23.326 140.4688,-23.687 13.9552,0.107 28.3378,6.062 35.6058,18.537 11.8717,18.058 16.5108,39.635 22.8942,59.963 7.296,27.0011 12.9034,54.4361 24.1562,80.1241 40.5058,-23.047 72.0357,-59.584 113.5938,-80.8741 11.5264,-5.507 25.3331,-8.549 37.375,-2.813 18.3622,8.265 31.1879,24.7691 44.9374,38.8121 21.1423,23.454 39.7559,49.258 63.9063,69.812 27.6816,-40.771 40.4165,-90.636 72.3437,-128.4991 10.8356,-11.682 28.0209,-14.763 43.1064,-11.089 22.5247,5.539 43.8844,15.227 65.1472,24.47 20.8709,9.313 41.8265,18.8941 63.934,24.8061 5.5314,-34.8641 1.3087,-70.4901 3.6743,-105.6851 1.0179,-17.563 2.1452,-36.255 10.9194,-51.877 10.831,-15.679 30.8495,-19.839 48.6563,-21.375 39.1948,-5.01 79.1669,-1.339 118.0624,-8.469 -6.7839,-24.844 -20.4249,-47.269 -30.5937,-70.875 -11.0232,-23.424 -23.2573,-47.391 -25,-73.594 1.0795,-19.809 17.6085,-34.25 33.7187,-43.44 33.4464,-21.781 71.5517,-36.041 103.9063,-59.591 -23.1145,-25.608 -52.5186,-44.016 -78.1192,-66.893 -14.03,-12.328 -28.899,-25.548 -36.0683,-43.17 -5.8539,-19.429 5.5278,-38.513 15.8196,-54.315 20.1485,-32.484 47.0121,-60.504 64.9929,-94.403 -46.0125,-18.047 -98.1637,-19.328 -142.4687,-42.563 -14.6845,-9.184 -20.9423,-27.412 -19.0775,-44.124 1.6629,-44.5 17.2164,-87.302 19.0149,-131.689 -46.5494,3.204 -90.789,22.438 -137.5624,23.594 -13.7305,0.171 -28.2102,-4.368 -36.5,-15.937 -11.7788,-15.744 -16.0981,-35.462 -22.2802,-53.8262 -8.6578,-29.7356 -14.1756,-60.6109 -26.7824,-89.0492 -41.893,24.3235 -74.3037,62.4069 -118.3124,83.1875 -12.5036,5.4177 -27.8648,5.2895 -39.1876,-2.9687 -19.8247,-12.4681 -34.1687,-31.5131 -49.9414,-48.5151 -16.7374,-19.5145 -32.6411,-40.0906 -52.3086,-56.6725 l -0.4687,0.6876 z"
         id="path5607"
         style="fill:#ff6600;fill-opacity:1;stroke:none" />
      <path
         d="m 1836.2021,8937.8623 c -24.5495,37.2062 -37.5039,81.0054 -63.6296,117.2074 -6.6717,9.2253 -14.3513,19.0685 -26.1204,21.605 -17.3046,5.1883 -34.5705,-2.3977 -50.7382,-7.8025 -34.9847,-12.4699 -67.5953,-31.6387 -103.5118,-41.3849 -7.1799,46.5101 1.9799,94.5213 -8,140.75 -2.9999,13.526 -11.2815,26.8608 -25.0313,31.5312 -19.7123,7.9628 -41.5314,7.4714 -62.3742,9.4146 -28.7012,1.3875 -57.6977,0.2504 -85.9382,5.9292 13.5845,44.5255 42.1769,83.6405 53.625,129 3.3314,13.6443 2.0051,29.5962 -8.4063,40.0624 -14.1708,15.7392 -33.8298,24.7969 -51.7886,35.4706 -25.5079,13.7378 -52.215,25.6431 -75.5864,42.9982 31.5903,33.8263 73.2876,56.5522 103.4063,91.6562 8.0422,9.9095 14.7684,22.308 12.0312,35.5 -3.5406,20.5311 -17.2656,37.1455 -28.2843,54.161 -18.0445,25.6563 -38.8539,49.4202 -53.6219,77.2758 43.8788,17.407 92.679,19.138 135.5937,39.094 11.6482,5.697 22.0463,15.522 24.5313,28.719 4.0963,19.122 -0.52,38.773 -2.9437,57.832 -5.0621,30.981 -13.557,61.56 -14.7751,92.98 47.4394,-3.6 92.6752,-23.326 140.4688,-23.687 13.9552,0.108 28.3378,6.062 35.6058,18.537 11.8717,18.058 16.5108,39.635 22.8942,59.962 7.296,27.0015 12.9034,54.4375 24.1562,80.1245 40.5058,-23.046 72.0357,-59.584 113.5938,-80.8745 11.5264,-5.506 25.3331,-8.548 37.375,-2.812 18.3622,8.264 31.1879,24.7695 44.9374,38.8115 21.1423,23.454 39.7559,49.259 63.9063,69.813 27.6816,-40.771 40.4165,-90.636 72.3437,-128.4995 10.8356,-11.682 28.0209,-14.763 43.1064,-11.088 22.5247,5.538 43.8844,15.226 65.1472,24.47 20.8709,9.312 41.8265,18.8945 63.934,24.8045 5.5315,-34.8635 1.3088,-70.4895 3.6744,-105.6845 1.0179,-17.563 2.1452,-36.255 10.9194,-51.877 10.831,-15.679 30.8495,-19.838 48.6564,-21.375 39.1947,-5.009 79.1668,-1.338 118.0623,-8.468 -6.7839,-24.844 -20.4249,-47.269 -30.5937,-70.875 -11.0232,-23.424 -23.2573,-47.3907 -25,-73.5938 1.0795,-19.8088 17.6085,-34.2502 33.7187,-43.4396 33.4464,-21.781 71.5517,-36.0413 103.9063,-59.5916 -23.1145,-25.6082 -52.5186,-44.0155 -78.1192,-66.8925 -14.03,-12.3279 -28.899,-25.5488 -36.0683,-43.17 -5.8539,-19.4296 5.5278,-38.5133 15.8196,-54.315 20.1485,-32.4841 47.0121,-60.5039 64.9929,-94.4037 -46.0125,-18.0466 -98.1637,-19.3274 -142.4687,-42.5626 -14.6844,-9.1837 -20.9422,-27.4119 -19.0774,-44.1238 1.6629,-44.4996 17.2164,-87.3018 19.0148,-131.6886 -46.5494,3.204 -90.7891,22.4379 -137.5625,23.5937 -13.7305,0.1707 -28.2102,-4.3685 -36.5,-15.9375 -11.7788,-15.7432 -16.0981,-35.4618 -22.2802,-53.8258 -8.6578,-29.7356 -14.1756,-60.6109 -26.7824,-89.0492 -41.893,24.3235 -74.3037,62.4069 -118.3124,83.1875 -12.5036,5.4177 -27.8648,5.2895 -39.1876,-2.9687 -19.8247,-12.4681 -34.1687,-31.5131 -49.9414,-48.5151 -16.7374,-19.5145 -32.6411,-40.0906 -52.3086,-56.6725 l -0.4687,0.6876 z"
         id="path5609"
         style="fill:url(#linearGradient6528-1);fill-opacity:1;stroke:none" />
      <path
         d="m 1836.6708,8942.2453 -0.4687,0.6876 c -24.5495,37.2061 -37.4993,81.0167 -63.625,117.2187 -6.6717,9.2253 -14.3559,19.0573 -26.125,21.5937 -17.3046,5.1883 -34.5823,-2.4077 -50.75,-7.8124 -34.9847,-12.47 -67.5835,-31.6289 -103.5,-41.375 -7.1799,46.5101 1.9799,94.5213 -8,140.75 -2.9999,13.5259 -11.2814,26.8608 -25.0313,31.5312 -19.7123,7.9628 -41.5321,7.4631 -62.375,9.4062 -28.7011,1.3875 -57.697,0.2588 -85.9374,5.9376 13.5844,44.5254 42.1768,83.6405 53.625,129 3.3314,13.6442 2.0051,29.5963 -8.4063,40.0624 -14.1708,15.7392 -33.8225,24.7951 -51.7813,35.4688 -23.2633,12.529 -47.5255,23.5578 -69.3437,38.5625 116.5512,61.7752 267.9628,118.7367 394.3437,89 240.203,-56.5183 396.8877,-193.0724 668.9062,-138.8125 20.0172,-31.7392 46.2203,-59.3713 63.875,-92.6562 -46.0125,-18.0466 -98.1638,-19.3273 -142.4687,-42.5626 -14.6845,-9.1836 -20.9274,-27.413 -19.0626,-44.125 1.6629,-44.4996 17.2015,-87.3006 19,-131.6874 -46.5492,3.2039 -90.789,22.4379 -137.5623,23.5937 -13.7306,0.1707 -28.2102,-4.3685 -36.5,-15.9375 -11.7789,-15.7432 -16.0992,-35.4485 -22.2813,-53.8125 -8.6578,-29.7356 -14.1744,-60.6242 -26.7813,-89.0625 -41.893,24.3235 -74.3038,62.4069 -118.3124,83.1875 -12.5037,5.4177 -27.8647,5.2895 -39.1876,-2.9687 -19.8247,-12.4682 -34.1648,-31.4981 -49.9374,-48.5 -16.7374,-19.5146 -32.645,-40.1057 -52.3126,-56.6876 z"
         id="path5611"
         style="fill:url(#linearGradient7594);fill-opacity:1;stroke:none" />
    </g>
    <g
       transform="matrix(0.24484046,0,0,0.24484046,-193.61684,-2673.0453)"
       id="g6503">
      <path
         d="m 2882.8584,11063.922 c -11.4187,1.914 -17.5448,13.547 -23.6874,22.156 -22.4926,36.252 -36.6383,77.406 -60.187,112.961 -4.0547,5.893 -9.685,12.822 -17.8443,10.445 -26.4952,-5.162 -50.8199,-18.243 -75.7833,-28.413 -22.2932,-9.139 -44.381,-20.38 -68.373,-23.868 -7.9461,-1.552 -16.958,1.871 -19.6562,10 -7.3049,19.413 -6.1778,40.909 -7.0843,61.406 -0.9156,30.515 1.3988,61.727 -3.8219,91.688 -0.9264,5.771 -3.5601,12.445 -10.0626,13.656 -23.2968,6.783 -48.01,5.758 -72.0564,7.25 -26.4955,1.527 -53.6022,0.779 -79.3186,7.844 -8.0064,1.94 -16.28,8.111 -15.4374,17.25 1.154,19.311 10.5893,36.854 18,54.407 12.9042,29.402 29.2373,57.469 38.4062,88.343 1.9713,6.298 2.489,13.885 -3.5312,18.218 -19.8375,17.022 -44.2216,27.503 -66.875,40.188 -21.6336,12.034 -44.7384,22.505 -63.1563,39.219 -6.093,5.145 -10.0782,14.026 -5.625,21.5 9.9082,17.576 26.8766,29.684 41.7097,42.791 24.1829,20.52 50.5348,38.443 71.6966,62.084 4.3025,4.63 7.3516,11.15 4.0624,17.156 -10.224,23.478 -27.3204,43.278 -41.9284,64.061 -14.5629,20.526 -31.2058,40.499 -40.8216,64.001 -3.2271,7.281 -2.9014,17.023 4.3438,21.75 15.7809,11.078 35.3649,14.666 53.6903,19.798 30.9727,8.235 63.2589,12.997 92.9659,25.046 6.0676,2.336 12.5211,6.695 12.0938,14.063 0.9526,26.734 -6.291,53.058 -10.6451,79.373 -3.9486,24.103 -10.153,48.363 -8.2299,72.939 0.4517,7.605 4.9544,15.617 13.1562,16.719 18.7617,3.139 37.684,-1.996 56.1031,-5.24 31.8715,-6.067 63.2394,-15.887 95.6157,-17.979 6.5355,-0.547 14.2151,0.657 17,7.5 12.1275,23.045 17.0071,49.23 24.2812,74.125 6.89,23.735 12.0221,48.572 24.1876,70.312 3.6584,7.032 11.4409,13.015 19.7812,10.25 19.2382,-5.74 34.8732,-19.554 50.917,-31.142 25.3279,-18.89 48.7306,-40.737 76.4892,-56.045 5.3765,-3.186 12.5047,-4.739 17.625,-0.156 20.3445,14.862 35.6531,35.709 52.4516,54.377 17.1525,19.059 32.8539,39.907 53.9547,54.748 6.3724,4.709 15.8841,6.718 22.1563,0.687 14.7436,-13.28 22.6714,-32.218 32.0312,-49.344 14.8062,-28.295 26.4626,-58.523 45.0938,-84.624 3.4868,-5.18 9.1568,-9.642 15.6874,-7.719 24.3985,4.441 47.0038,16.419 69.9884,25.836 23.9554,9.846 47.5026,21.996 73.2304,26.32 7.7871,1.521 17.239,-0.829 20.2812,-8.969 7.1595,-17.231 6.4429,-36.514 7.4063,-54.875 1.1769,-32.724 -1.4652,-65.858 3.75,-98.218 0.9664,-6.088 3.3917,-13.218 10.25,-14.594 22.9305,-6.698 47.2974,-5.731 71.0572,-7.211 26.8203,-1.512 54.2598,-0.772 80.2865,-7.852 7.6271,-1.97 15.8343,-7.49 15.4688,-16.312 -0.6663,-19.322 -10.2616,-36.925 -17.5707,-54.473 -13.0212,-29.705 -29.6005,-58.181 -38.8355,-89.246 -1.9881,-6.29 -2.4057,-13.992 3.5937,-18.281 20.6659,-17.52 45.9465,-28.39 69.4692,-41.519 21.0716,-11.741 43.6121,-22.016 61.2808,-38.575 6.1062,-5.252 9.1259,-14.406 4.4375,-21.562 -10.4569,-17.651 -27.6723,-29.946 -42.8543,-43.242 -23.4581,-19.822 -48.8332,-37.296 -69.4895,-60.04 -4.1184,-4.664 -8.1654,-10.844 -5,-17.156 9.9265,-23.584 27.137,-43.265 41.6479,-64.037 14.761,-20.891 31.6376,-40.951 41.3834,-64.775 3.2143,-7.206 2.9669,-17.038 -4.3125,-21.75 -15.7731,-11.104 -35.3753,-14.714 -53.6913,-19.825 -31.3988,-8.399 -64.0234,-13.02 -94.0587,-25.519 -5.919,-2.315 -11.3208,-6.794 -11.0312,-13.719 -0.9367,-26.07 6.0516,-51.594 10.2812,-77.281 4.0948,-24.403 10.2697,-48.997 8.7188,-73.875 -0.2599,-7.939 -4.6431,-16.582 -13.2813,-17.75 -19.5917,-3.198 -39.2934,2.326 -58.5,5.75 -31.0536,6.009 -61.6518,15.477 -93.2187,17.469 -6.4876,0.529 -14.1658,-0.639 -16.9688,-7.5 -12.0249,-22.718 -16.7242,-48.207 -23.9018,-72.712 -7.1004,-24.231 -12.1389,-49.532 -24.5982,-71.726 -3.734,-7.403 -12.0685,-13.263 -20.5312,-10.031 -18.8359,5.932 -34.3282,19.465 -50.1374,30.921 -25.3736,18.895 -48.7293,40.772 -76.5189,56.048 -5.4181,3.149 -12.4239,4.77 -17.5937,0.187 -20.6657,-15.215 -36.131,-36.281 -53.149,-55.155 -17.1252,-19.025 -32.8744,-40.038 -54.1323,-54.532 -3.7998,-2.223 -8.0244,-4.277 -12.5313,-4 z"
         id="path5701"
         style="fill:#000000;fill-opacity:1;stroke:none;filter:url(#filter5585-8)" />
      <path
         d="m 2617.363,5996.6686 c -13.3685,22.0805 -152.1227,7.6827 -170.0694,26.2349 -17.9466,18.5521 1.0455,156.7524 -20.5795,170.8459 -21.6249,14.0935 -140.3911,-59.0817 -164.61,-50.1536 -24.2189,8.9282 -67.0704,141.6827 -92.6688,144.9978 -25.5983,3.3151 -100.8534,-114.1442 -126.5477,-116.6084 -25.6942,-2.4642 -121.9021,98.5509 -146.4038,90.431 -24.5017,-8.12 -41.3405,-146.5991 -63.4211,-159.9676 -22.0805,-13.3685 -152.5896,35.9 -171.1418,17.9533 -18.5522,-17.9467 26.3604,-150.0182 12.2669,-171.6431 -14.0935,-21.625 -153.0549,-33.8615 -161.9831,-58.0804 -8.9281,-24.2189 88.8404,-123.7243 85.5253,-149.3227 -3.3151,-25.5984 -123.2058,-96.9161 -120.7416,-122.6104 2.4642,-25.6942 133.7243,-72.9254 141.8443,-97.4271 8.1199,-24.5017 -68.9543,-140.7754 -55.5858,-162.8559 13.3685,-22.0806 152.1226,-7.6827 170.0693,-26.2349 17.9467,-18.5522 -1.0455,-156.7524 20.5795,-170.8459 21.625,-14.0935 140.3912,59.0817 164.6101,50.1535 24.2189,-8.9281 67.0704,-141.6826 92.6687,-144.9977 25.5984,-3.3151 100.8535,114.1442 126.5477,116.6084 25.6943,2.4642 121.9022,-98.5509 146.4039,-90.431 24.5017,8.1199 41.3405,146.599 63.421,159.9675 22.0806,13.3685 152.5897,-35.8999 171.1419,-17.9532 18.5521,17.9467 -26.3604,150.0181 -12.2669,171.6431 14.0935,21.625 153.0549,33.8614 161.983,58.0803 8.9282,24.2189 -88.8403,123.7244 -85.5252,149.3227 3.3151,25.5984 123.2058,96.9162 120.7416,122.6104 -2.4642,25.6943 -133.7244,72.9254 -141.8443,97.4271 -8.1199,24.5017 68.9543,140.7755 55.5858,162.856 z"
         transform="translate(871.45215,6001.0154)"
         id="path5703"
         style="fill:#008000;fill-opacity:1;stroke:none" />
      <path
         d="m 2885.8084,11097.922 c -24.5495,37.206 -37.5039,81.005 -63.6296,117.207 -6.6717,9.225 -14.3513,19.069 -26.1204,21.605 -17.3046,5.188 -34.5705,-2.398 -50.7382,-7.802 -34.9847,-12.47 -67.5953,-31.639 -103.5118,-41.385 -7.1799,46.51 1.9799,94.521 -8,140.75 -2.9999,13.526 -11.2815,26.86 -25.0313,31.531 -19.7123,7.963 -41.5314,7.471 -62.3742,9.414 -28.7012,1.388 -57.6977,0.251 -85.9382,5.93 13.5845,44.525 42.1769,83.64 53.625,129 3.3314,13.644 2.0051,29.596 -8.4063,40.062 -14.1708,15.739 -33.8298,24.797 -51.7886,35.471 -25.5079,13.737 -52.215,25.643 -75.5864,42.998 31.5903,33.826 73.2876,56.552 103.4063,91.656 8.0422,9.91 14.7684,22.308 12.0312,35.5 -3.5406,20.531 -17.2656,37.146 -28.2843,54.161 -18.0445,25.656 -38.8539,49.42 -53.6219,77.277 43.8788,17.405 92.679,19.136 135.5937,39.094 11.6482,5.697 22.0463,15.522 24.5313,28.718 4.0963,19.122 -0.52,38.773 -2.9437,57.832 -5.0621,30.982 -13.557,61.561 -14.7751,92.981 47.4394,-3.601 92.6752,-23.326 140.4688,-23.687 13.9552,0.107 28.3378,6.062 35.6058,18.537 11.8717,18.058 16.5108,39.635 22.8942,59.963 7.296,27.001 12.9034,54.436 24.1562,80.124 40.5058,-23.047 72.0357,-59.584 113.5938,-80.874 11.5264,-5.507 25.3331,-8.549 37.375,-2.813 18.3622,8.265 31.1879,24.769 44.9374,38.812 21.1423,23.454 39.7559,49.258 63.9063,69.812 27.6816,-40.771 40.4165,-90.636 72.3437,-128.499 10.8356,-11.682 28.0209,-14.763 43.1064,-11.089 22.5247,5.539 43.8844,15.227 65.1472,24.47 20.8709,9.313 41.8265,18.894 63.934,24.806 5.5314,-34.864 1.3087,-70.49 3.6743,-105.685 1.0179,-17.563 2.1452,-36.255 10.9194,-51.877 10.831,-15.679 30.8495,-19.839 48.6563,-21.375 39.1948,-5.01 79.1669,-1.339 118.0624,-8.469 -6.7839,-24.844 -20.4249,-47.269 -30.5937,-70.875 -11.0232,-23.424 -23.2573,-47.391 -25,-73.594 1.0795,-19.809 17.6085,-34.25 33.7187,-43.44 33.4464,-21.781 71.5517,-36.041 103.9063,-59.591 -23.1145,-25.608 -52.5186,-44.016 -78.1192,-66.893 -14.03,-12.328 -28.899,-25.548 -36.0683,-43.17 -5.8539,-19.429 5.5278,-38.513 15.8196,-54.315 20.1485,-32.484 47.0121,-60.504 64.9929,-94.403 -46.0125,-18.047 -98.1637,-19.328 -142.4687,-42.563 -14.6845,-9.184 -20.9423,-27.412 -19.0775,-44.124 1.6629,-44.499 17.2164,-87.301 19.0149,-131.688 -46.5494,3.204 -90.789,22.438 -137.5624,23.593 -13.7305,0.171 -28.2102,-4.368 -36.5,-15.937 -11.7788,-15.743 -16.0981,-35.462 -22.2802,-53.826 -8.6578,-29.735 -14.1756,-60.611 -26.7824,-89.049 -41.893,24.323 -74.3037,62.407 -118.3124,83.187 -12.5036,5.418 -27.8648,5.29 -39.1876,-2.968 -19.8247,-12.468 -34.1687,-31.513 -49.9414,-48.515 -16.7374,-19.515 -32.6411,-40.091 -52.3086,-56.673 l -0.4687,0.688 z"
         id="path5705"
         style="fill:#00ff00;fill-opacity:1;stroke:none" />
      <path
         d="m 2890.879,11102.992 c -24.5495,37.207 -37.5039,81.006 -63.6296,117.208 -6.6717,9.225 -14.3513,19.068 -26.1204,21.605 -17.3046,5.188 -34.5705,-2.398 -50.7382,-7.803 -34.9847,-12.47 -67.5953,-31.638 -103.5118,-41.385 -7.1799,46.51 1.9799,94.522 -8,140.75 -2.9999,13.526 -11.2815,26.861 -25.0313,31.532 -19.7123,7.962 -41.5314,7.471 -62.3742,9.414 -28.7012,1.388 -57.6977,0.251 -85.9382,5.929 13.5845,44.526 42.1769,83.641 53.625,129 3.3314,13.645 2.0051,29.597 -8.4063,40.063 -14.1708,15.739 -33.8298,24.797 -51.7886,35.47 -25.5079,13.738 -52.215,25.643 -75.5864,42.999 31.5903,33.826 73.2876,56.552 103.4063,91.656 8.0422,9.909 14.7684,22.308 12.0312,35.5 -3.5406,20.531 -17.2656,37.145 -28.2843,54.161 -18.0445,25.656 -38.8539,49.42 -53.6219,77.276 43.8788,17.406 92.679,19.137 135.5937,39.094 11.6482,5.697 22.0463,15.522 24.5313,28.719 4.0963,19.122 -0.52,38.773 -2.9437,57.832 -5.0621,30.981 -13.557,61.56 -14.7751,92.98 47.4394,-3.6 92.6752,-23.326 140.4688,-23.687 13.9552,0.108 28.3378,6.062 35.6058,18.537 11.8717,18.058 16.5108,39.635 22.8942,59.962 7.296,27 12.9034,54.436 24.1562,80.123 40.5058,-23.046 72.0357,-59.584 113.5938,-80.873 11.5264,-5.506 25.3331,-8.548 37.375,-2.812 18.3622,8.263 31.1879,24.768 44.9374,38.81 21.1423,23.454 39.7559,49.259 63.9063,69.813 27.6816,-40.771 40.4165,-90.636 72.3437,-128.498 10.8356,-11.682 28.0209,-14.763 43.1064,-11.088 22.5247,5.538 43.8844,15.226 65.1472,24.47 20.8709,9.312 41.8265,18.893 63.934,24.803 5.5314,-34.862 1.3087,-70.488 3.6743,-105.683 1.0179,-17.563 2.1452,-36.255 10.9194,-51.877 10.831,-15.679 30.8495,-19.838 48.6564,-21.375 39.1947,-5.009 79.1668,-1.338 118.0623,-8.468 -6.7839,-24.844 -20.4249,-47.269 -30.5937,-70.875 -11.0232,-23.424 -23.2573,-47.391 -25,-73.594 1.0795,-19.809 17.6085,-34.25 33.7187,-43.44 33.4464,-21.781 71.5517,-36.041 103.9063,-59.591 -23.1145,-25.609 -52.5186,-44.016 -78.1192,-66.893 -14.03,-12.328 -28.899,-25.549 -36.0683,-43.17 -5.8539,-19.43 5.5278,-38.513 15.8196,-54.315 20.1485,-32.484 47.0121,-60.504 64.9929,-94.404 -46.0125,-18.046 -98.1637,-19.327 -142.4687,-42.562 -14.6844,-9.184 -20.9422,-27.412 -19.0774,-44.124 1.6629,-44.5 17.2164,-87.302 19.0148,-131.689 -46.5494,3.204 -90.789,22.438 -137.5624,23.594 -13.7305,0.171 -28.2102,-4.368 -36.5,-15.937 -11.7788,-15.744 -16.0981,-35.462 -22.2802,-53.826 -8.6578,-29.736 -14.1756,-60.611 -26.7824,-89.049 -41.893,24.323 -74.3037,62.406 -118.3124,83.187 -12.5036,5.418 -27.8648,5.29 -39.1876,-2.969 -19.8247,-12.468 -34.1687,-31.513 -49.9414,-48.515 -16.7374,-19.514 -32.6411,-40.09 -52.3086,-56.672 l -0.4687,0.687 z"
         id="path5707"
         style="fill:url(#linearGradient5711-3);fill-opacity:1;stroke:none" />
      <path
         d="m 2886.2771,11102.305 -0.4687,0.687 c -24.5495,37.206 -37.4993,81.017 -63.625,117.219 -6.6717,9.225 -14.3559,19.057 -26.125,21.594 -17.3046,5.188 -34.5823,-2.408 -50.75,-7.813 -34.9847,-12.47 -67.5835,-31.629 -103.5,-41.375 -7.1799,46.51 1.9799,94.522 -8,140.75 -2.9999,13.526 -11.2814,26.861 -25.0313,31.532 -19.7123,7.962 -41.5321,7.463 -62.375,9.406 -28.7011,1.387 -57.697,0.259 -85.9374,5.937 13.5844,44.526 42.1768,83.641 53.625,129 3.3314,13.645 2.0051,29.597 -8.4063,40.063 -14.1708,15.739 -33.8225,24.795 -51.7813,35.469 -23.2633,12.529 -47.5255,23.557 -69.3437,38.562 116.5512,61.775 267.9628,118.737 394.3437,89 240.203,-56.518 396.8877,-193.072 668.9062,-138.812 20.0172,-31.74 46.2203,-59.372 63.875,-92.657 -46.0125,-18.046 -98.1638,-19.327 -142.4687,-42.562 -14.6845,-9.184 -20.9274,-27.413 -19.0626,-44.125 1.6629,-44.5 17.2015,-87.301 19,-131.688 -46.5492,3.204 -90.789,22.438 -137.5623,23.594 -13.7306,0.171 -28.2102,-4.368 -36.5,-15.937 -11.7789,-15.744 -16.0992,-35.449 -22.2813,-53.813 -8.6578,-29.736 -14.1744,-60.624 -26.7813,-89.062 -41.893,24.323 -74.3038,62.406 -118.3124,83.187 -12.5037,5.418 -27.8647,5.29 -39.1876,-2.969 -19.8247,-12.468 -34.1648,-31.498 -49.9374,-48.5 -16.7374,-19.514 -32.645,-40.105 -52.3126,-56.687 z"
         id="path5709"
         style="fill:url(#linearGradient5713-1);fill-opacity:1;stroke:none" />
    </g>
  </g>
</svg>
