<?xml version="1.0" encoding="UTF-8" standalone="no"?>
<!-- Created with Inkscape (http://www.inkscape.org/) -->

<svg
   xmlns:dc="http://purl.org/dc/elements/1.1/"
   xmlns:cc="http://creativecommons.org/ns#"
   xmlns:rdf="http://www.w3.org/1999/02/22-rdf-syntax-ns#"
   xmlns:svg="http://www.w3.org/2000/svg"
   xmlns="http://www.w3.org/2000/svg"
   xmlns:xlink="http://www.w3.org/1999/xlink"
   xmlns:sodipodi="http://sodipodi.sourceforge.net/DTD/sodipodi-0.dtd"
   xmlns:inkscape="http://www.inkscape.org/namespaces/inkscape"
   version="1.1"
   width="698.46082"
   height="822.44147"
   id="svg8498"
   inkscape:version="0.48.1 r9760"
   sodipodi:docname="signup.svg">
  <sodipodi:namedview
     pagecolor="#ffffff"
     bordercolor="#666666"
     borderopacity="1"
     objecttolerance="10"
     gridtolerance="10"
     guidetolerance="10"
     inkscape:pageopacity="0"
     inkscape:pageshadow="2"
     inkscape:window-width="1200"
     inkscape:window-height="1884"
     id="namedview3315"
     showgrid="false"
     inkscape:zoom="0.42665242"
     inkscape:cx="169.57462"
     inkscape:cy="-309.46363"
     inkscape:window-x="0"
     inkscape:window-y="0"
     inkscape:window-maximized="1"
     inkscape:current-layer="svg8498" />
  <defs
     id="defs3">
    <clipPath
       id="clipPath3828">
      <rect
         width="395.50385"
         height="138.17282"
         ry="18.904718"
         x="-413.25079"
         y="357.69519"
         id="rect3830"
         style="fill:#ff6600;fill-opacity:1;stroke:none" />
    </clipPath>
    <clipPath
       id="clipPath3824">
      <rect
         width="395.50385"
         height="138.17282"
         ry="18.904718"
         x="-413.25079"
         y="357.69519"
         id="rect3826"
         style="fill:#ff6600;fill-opacity:1;stroke:none" />
    </clipPath>
    <radialGradient
       cx="30.423372"
       cy="776.36084"
       r="202.82248"
       fx="30.423372"
       fy="776.36084"
       id="radialGradient8243"
       xlink:href="#linearGradient3498"
       gradientUnits="userSpaceOnUse"
       gradientTransform="matrix(0.7497571,-0.01483712,0.00431778,0.21820064,115.81344,605.79787)" />
    <linearGradient
       id="linearGradient3498">
      <stop
         id="stop3500"
         style="stop-color:#ffffff;stop-opacity:1"
         offset="0" />
      <stop
         id="stop3502"
         style="stop-color:#ffffff;stop-opacity:0"
         offset="1" />
    </linearGradient>
    <radialGradient
       cx="30.423372"
       cy="776.36084"
       r="202.82248"
       fx="30.423372"
       fy="776.36084"
       id="radialGradient8245"
       xlink:href="#linearGradient3498"
       gradientUnits="userSpaceOnUse"
       gradientTransform="matrix(0.7497571,-0.01483712,0.00431778,0.21820064,115.81344,605.79787)" />
    <linearGradient
       x1="262.40158"
       y1="588.40576"
       x2="262.40158"
       y2="620.45441"
       id="linearGradient8247"
       xlink:href="#linearGradient3142"
       gradientUnits="userSpaceOnUse"
       gradientTransform="matrix(0.98674174,0,0,1.0365561,-570.74955,-70.130314)" />
    <linearGradient
       id="linearGradient3142">
      <stop
         id="stop3144"
         style="stop-color:#000000;stop-opacity:1"
         offset="0" />
      <stop
         id="stop3146"
         style="stop-color:#000000;stop-opacity:0"
         offset="1" />
    </linearGradient>
    <linearGradient
       x1="262.40158"
       y1="588.40576"
       x2="262.40158"
       y2="619.23151"
       id="linearGradient8249"
       xlink:href="#linearGradient3142"
       gradientUnits="userSpaceOnUse"
       gradientTransform="matrix(0.98674174,0,0,1.0365561,82.924309,-1315.4989)" />
    <radialGradient
       cx="21.305288"
       cy="365.37674"
       r="202.82248"
       fx="21.305288"
       fy="365.37674"
       id="radialGradient8251"
       xlink:href="#linearGradient3142"
       gradientUnits="userSpaceOnUse"
       gradientTransform="matrix(-0.14374152,-0.00156142,0.00624972,-0.57539678,-126.61891,840.93303)" />
    <radialGradient
       cx="21.305288"
       cy="365.37674"
       r="202.82248"
       fx="21.305288"
       fy="365.37674"
       id="radialGradient8253"
       xlink:href="#linearGradient3142"
       gradientUnits="userSpaceOnUse"
       gradientTransform="matrix(-0.14374152,-0.00156142,0.00624972,-0.57539678,527.05492,-404.43553)" />
    <linearGradient
       x1="262.40158"
       y1="588.40576"
       x2="262.40158"
       y2="620.45441"
       id="linearGradient8255"
       xlink:href="#linearGradient3142"
       gradientUnits="userSpaceOnUse"
       gradientTransform="matrix(0.98674174,0,0,1.0365561,-570.74955,-70.130314)" />
    <linearGradient
       x1="262.40158"
       y1="588.40576"
       x2="262.40158"
       y2="619.23151"
       id="linearGradient8257"
       xlink:href="#linearGradient3142"
       gradientUnits="userSpaceOnUse"
       gradientTransform="matrix(0.98674174,0,0,1.0365561,82.924309,-1315.4989)" />
    <radialGradient
       cx="21.305288"
       cy="365.37674"
       r="202.82248"
       fx="21.305288"
       fy="365.37674"
       id="radialGradient8259"
       xlink:href="#linearGradient3142"
       gradientUnits="userSpaceOnUse"
       gradientTransform="matrix(-0.14374152,-0.00156142,0.00624972,-0.57539678,-126.61891,840.93303)" />
    <radialGradient
       cx="21.305288"
       cy="365.37674"
       r="202.82248"
       fx="21.305288"
       fy="365.37674"
       id="radialGradient8261"
       xlink:href="#linearGradient3142"
       gradientUnits="userSpaceOnUse"
       gradientTransform="matrix(-0.14374152,-0.00156142,0.00624972,-0.57539678,527.05492,-404.43553)" />
    <linearGradient
       x1="263.66922"
       y1="306.98956"
       x2="263.66922"
       y2="412.20374"
       id="linearGradient8263"
       xlink:href="#linearGradient3163"
       gradientUnits="userSpaceOnUse"
       gradientTransform="matrix(1.1389189,0,0,1,-72.089915,5.070562)" />
    <linearGradient
       id="linearGradient3163">
      <stop
         id="stop3165"
         style="stop-color:#f9f9f9;stop-opacity:1"
         offset="0" />
      <stop
         id="stop3167"
         style="stop-color:#f9f9f9;stop-opacity:0"
         offset="1" />
    </linearGradient>
    <linearGradient
       x1="263.66922"
       y1="235.89346"
       x2="261.44318"
       y2="394.42972"
       id="linearGradient8265"
       xlink:href="#linearGradient3163"
       gradientUnits="userSpaceOnUse"
       gradientTransform="matrix(-1.1389189,0,0,-0.28527932,579.93382,531.58446)" />
    <linearGradient
       x1="263.66922"
       y1="306.98956"
       x2="263.66922"
       y2="412.20374"
       id="linearGradient8267"
       xlink:href="#linearGradient3163"
       gradientUnits="userSpaceOnUse"
       gradientTransform="matrix(1.1389189,0,0,1,-72.089915,5.070562)" />
    <linearGradient
       x1="263.66922"
       y1="235.89346"
       x2="261.44318"
       y2="394.42972"
       id="linearGradient8269"
       xlink:href="#linearGradient3163"
       gradientUnits="userSpaceOnUse"
       gradientTransform="matrix(-1.1389189,0,0,-0.28527932,579.93382,531.58446)" />
    <clipPath
       id="clipPath8607">
      <rect
         width="395.50385"
         height="138.17282"
         ry="18.904718"
         x="-413.25079"
         y="357.69519"
         id="rect8609"
         style="fill:#ff6600;fill-opacity:1;stroke:none" />
    </clipPath>
    <clipPath
       id="clipPath8611">
      <rect
         width="395.50385"
         height="138.17282"
         ry="18.904718"
         x="-413.25079"
         y="357.69519"
         id="rect8613"
         style="fill:#ff6600;fill-opacity:1;stroke:none" />
    </clipPath>
    <radialGradient
       cx="30.423372"
       cy="776.36084"
       r="202.82248"
       fx="30.423372"
       fy="776.36084"
       id="radialGradient8304"
       xlink:href="#linearGradient3498"
       gradientUnits="userSpaceOnUse"
       gradientTransform="matrix(0.7497571,-0.01483712,0.00431778,0.21820064,115.81344,605.79787)" />
    <radialGradient
       cx="30.423372"
       cy="776.36084"
       r="202.82248"
       fx="30.423372"
       fy="776.36084"
       id="radialGradient8306"
       xlink:href="#linearGradient3498"
       gradientUnits="userSpaceOnUse"
       gradientTransform="matrix(0.7497571,-0.01483712,0.00431778,0.21820064,115.81344,605.79787)" />
    <linearGradient
       x1="262.40158"
       y1="588.40576"
       x2="262.40158"
       y2="620.45441"
       id="linearGradient8308"
       xlink:href="#linearGradient3142"
       gradientUnits="userSpaceOnUse"
       gradientTransform="matrix(0.98674174,0,0,1.0365561,-570.74955,-70.130314)" />
    <linearGradient
       x1="262.40158"
       y1="588.40576"
       x2="262.40158"
       y2="619.23151"
       id="linearGradient8310"
       xlink:href="#linearGradient3142"
       gradientUnits="userSpaceOnUse"
       gradientTransform="matrix(0.98674174,0,0,1.0365561,82.924309,-1315.4989)" />
    <radialGradient
       cx="21.305288"
       cy="365.37674"
       r="202.82248"
       fx="21.305288"
       fy="365.37674"
       id="radialGradient8312"
       xlink:href="#linearGradient3142"
       gradientUnits="userSpaceOnUse"
       gradientTransform="matrix(-0.14374152,-0.00156142,0.00624972,-0.57539678,-126.61891,840.93303)" />
    <radialGradient
       cx="21.305288"
       cy="365.37674"
       r="202.82248"
       fx="21.305288"
       fy="365.37674"
       id="radialGradient8314"
       xlink:href="#linearGradient3142"
       gradientUnits="userSpaceOnUse"
       gradientTransform="matrix(-0.14374152,-0.00156142,0.00624972,-0.57539678,527.05492,-404.43553)" />
    <linearGradient
       x1="262.40158"
       y1="588.40576"
       x2="262.40158"
       y2="620.45441"
       id="linearGradient8316"
       xlink:href="#linearGradient3142"
       gradientUnits="userSpaceOnUse"
       gradientTransform="matrix(0.98674174,0,0,1.0365561,-570.74955,-70.130314)" />
    <linearGradient
       x1="262.40158"
       y1="588.40576"
       x2="262.40158"
       y2="619.23151"
       id="linearGradient8318"
       xlink:href="#linearGradient3142"
       gradientUnits="userSpaceOnUse"
       gradientTransform="matrix(0.98674174,0,0,1.0365561,82.924309,-1315.4989)" />
    <radialGradient
       cx="21.305288"
       cy="365.37674"
       r="202.82248"
       fx="21.305288"
       fy="365.37674"
       id="radialGradient8320"
       xlink:href="#linearGradient3142"
       gradientUnits="userSpaceOnUse"
       gradientTransform="matrix(-0.14374152,-0.00156142,0.00624972,-0.57539678,-126.61891,840.93303)" />
    <radialGradient
       cx="21.305288"
       cy="365.37674"
       r="202.82248"
       fx="21.305288"
       fy="365.37674"
       id="radialGradient8322"
       xlink:href="#linearGradient3142"
       gradientUnits="userSpaceOnUse"
       gradientTransform="matrix(-0.14374152,-0.00156142,0.00624972,-0.57539678,527.05492,-404.43553)" />
    <linearGradient
       x1="263.66922"
       y1="306.98956"
       x2="263.66922"
       y2="412.20374"
       id="linearGradient8324"
       xlink:href="#linearGradient3163"
       gradientUnits="userSpaceOnUse"
       gradientTransform="matrix(1.1389189,0,0,1,-72.089915,5.070562)" />
    <linearGradient
       x1="263.66922"
       y1="235.89346"
       x2="261.44318"
       y2="394.42972"
       id="linearGradient8326"
       xlink:href="#linearGradient3163"
       gradientUnits="userSpaceOnUse"
       gradientTransform="matrix(-1.1389189,0,0,-0.28527932,579.93382,531.58446)" />
    <linearGradient
       x1="263.66922"
       y1="306.98956"
       x2="263.66922"
       y2="412.20374"
       id="linearGradient8328"
       xlink:href="#linearGradient3163"
       gradientUnits="userSpaceOnUse"
       gradientTransform="matrix(1.1389189,0,0,1,-72.089915,5.070562)" />
    <linearGradient
       x1="263.66922"
       y1="235.89346"
       x2="261.44318"
       y2="394.42972"
       id="linearGradient8330"
       xlink:href="#linearGradient3163"
       gradientUnits="userSpaceOnUse"
       gradientTransform="matrix(-1.1389189,0,0,-0.28527932,579.93382,531.58446)" />
    <clipPath
       id="clipPath8713">
      <rect
         width="395.50385"
         height="138.17282"
         ry="18.904718"
         x="-413.25079"
         y="357.69519"
         id="rect8715"
         style="fill:#ff6600;fill-opacity:1;stroke:none" />
    </clipPath>
    <clipPath
       id="clipPath8717">
      <rect
         width="395.50385"
         height="138.17282"
         ry="18.904718"
         x="-413.25079"
         y="357.69519"
         id="rect8719"
         style="fill:#ff6600;fill-opacity:1;stroke:none" />
    </clipPath>
    <radialGradient
       cx="30.423372"
       cy="776.36084"
       r="202.82248"
       fx="30.423372"
       fy="776.36084"
       id="radialGradient7866"
       xlink:href="#linearGradient3498"
       gradientUnits="userSpaceOnUse"
       gradientTransform="matrix(0.7497571,-0.01483712,0.00431778,0.21820064,115.81344,605.79787)" />
    <radialGradient
       cx="30.423372"
       cy="776.36084"
       r="202.82248"
       fx="30.423372"
       fy="776.36084"
       id="radialGradient7868"
       xlink:href="#linearGradient3498"
       gradientUnits="userSpaceOnUse"
       gradientTransform="matrix(0.7497571,-0.01483712,0.00431778,0.21820064,115.81344,605.79787)" />
    <linearGradient
       x1="262.40158"
       y1="588.40576"
       x2="262.40158"
       y2="620.45441"
       id="linearGradient7870"
       xlink:href="#linearGradient3142"
       gradientUnits="userSpaceOnUse"
       gradientTransform="matrix(0.98674174,0,0,1.0365561,-570.74955,-70.130314)" />
    <linearGradient
       x1="262.40158"
       y1="588.40576"
       x2="262.40158"
       y2="619.23151"
       id="linearGradient7872"
       xlink:href="#linearGradient3142"
       gradientUnits="userSpaceOnUse"
       gradientTransform="matrix(0.98674174,0,0,1.0365561,82.924309,-1315.4989)" />
    <radialGradient
       cx="21.305288"
       cy="365.37674"
       r="202.82248"
       fx="21.305288"
       fy="365.37674"
       id="radialGradient7874"
       xlink:href="#linearGradient3142"
       gradientUnits="userSpaceOnUse"
       gradientTransform="matrix(-0.14374152,-0.00156142,0.00624972,-0.57539678,-126.61891,840.93303)" />
    <radialGradient
       cx="21.305288"
       cy="365.37674"
       r="202.82248"
       fx="21.305288"
       fy="365.37674"
       id="radialGradient7876"
       xlink:href="#linearGradient3142"
       gradientUnits="userSpaceOnUse"
       gradientTransform="matrix(-0.14374152,-0.00156142,0.00624972,-0.57539678,527.05492,-404.43553)" />
    <linearGradient
       x1="262.40158"
       y1="588.40576"
       x2="262.40158"
       y2="620.45441"
       id="linearGradient7878"
       xlink:href="#linearGradient3142"
       gradientUnits="userSpaceOnUse"
       gradientTransform="matrix(0.98674174,0,0,1.0365561,-570.74955,-70.130314)" />
    <linearGradient
       x1="262.40158"
       y1="588.40576"
       x2="262.40158"
       y2="619.23151"
       id="linearGradient7880"
       xlink:href="#linearGradient3142"
       gradientUnits="userSpaceOnUse"
       gradientTransform="matrix(0.98674174,0,0,1.0365561,82.924309,-1315.4989)" />
    <radialGradient
       cx="21.305288"
       cy="365.37674"
       r="202.82248"
       fx="21.305288"
       fy="365.37674"
       id="radialGradient7882"
       xlink:href="#linearGradient3142"
       gradientUnits="userSpaceOnUse"
       gradientTransform="matrix(-0.14374152,-0.00156142,0.00624972,-0.57539678,-126.61891,840.93303)" />
    <radialGradient
       cx="21.305288"
       cy="365.37674"
       r="202.82248"
       fx="21.305288"
       fy="365.37674"
       id="radialGradient7884"
       xlink:href="#linearGradient3142"
       gradientUnits="userSpaceOnUse"
       gradientTransform="matrix(-0.14374152,-0.00156142,0.00624972,-0.57539678,527.05492,-404.43553)" />
    <linearGradient
       x1="263.66922"
       y1="306.98956"
       x2="263.66922"
       y2="412.20374"
       id="linearGradient7886"
       xlink:href="#linearGradient3163"
       gradientUnits="userSpaceOnUse"
       gradientTransform="matrix(1.1389189,0,0,1,-72.089915,5.070562)" />
    <linearGradient
       x1="263.66922"
       y1="235.89346"
       x2="261.44318"
       y2="394.42972"
       id="linearGradient7888"
       xlink:href="#linearGradient3163"
       gradientUnits="userSpaceOnUse"
       gradientTransform="matrix(-1.1389189,0,0,-0.28527932,579.93382,531.58446)" />
    <linearGradient
       x1="263.66922"
       y1="306.98956"
       x2="263.66922"
       y2="412.20374"
       id="linearGradient7890"
       xlink:href="#linearGradient3163"
       gradientUnits="userSpaceOnUse"
       gradientTransform="matrix(1.1389189,0,0,1,-72.089915,5.070562)" />
    <linearGradient
       x1="263.66922"
       y1="235.89346"
       x2="261.44318"
       y2="394.42972"
       id="linearGradient7892"
       xlink:href="#linearGradient3163"
       gradientUnits="userSpaceOnUse"
       gradientTransform="matrix(-1.1389189,0,0,-0.28527932,579.93382,531.58446)" />
    <radialGradient
       inkscape:collect="always"
       xlink:href="#linearGradient3498"
       id="radialGradient4163"
       gradientUnits="userSpaceOnUse"
       gradientTransform="matrix(0.7497571,-0.01483712,0.00431778,0.21820064,115.81344,605.79787)"
       cx="30.423372"
       cy="776.36084"
       fx="30.423372"
       fy="776.36084"
       r="202.82248" />
    <radialGradient
       inkscape:collect="always"
       xlink:href="#linearGradient3498"
       id="radialGradient4165"
       gradientUnits="userSpaceOnUse"
       gradientTransform="matrix(0.7497571,-0.01483712,0.00431778,0.21820064,115.81344,605.79787)"
       cx="30.423372"
       cy="776.36084"
       fx="30.423372"
       fy="776.36084"
       r="202.82248" />
    <linearGradient
       inkscape:collect="always"
       xlink:href="#linearGradient3142"
       id="linearGradient4167"
       gradientUnits="userSpaceOnUse"
       gradientTransform="matrix(0.98674174,0,0,1.0365561,-570.74955,-70.130314)"
       x1="262.40158"
       y1="588.40576"
       x2="262.40158"
       y2="620.45441" />
    <linearGradient
       inkscape:collect="always"
       xlink:href="#linearGradient3142"
       id="linearGradient4169"
       gradientUnits="userSpaceOnUse"
       gradientTransform="matrix(0.98674174,0,0,1.0365561,82.924309,-1315.4989)"
       x1="262.40158"
       y1="588.40576"
       x2="262.40158"
       y2="619.23151" />
    <radialGradient
       inkscape:collect="always"
       xlink:href="#linearGradient3142"
       id="radialGradient4171"
       gradientUnits="userSpaceOnUse"
       gradientTransform="matrix(-0.14374152,-0.00156142,0.00624972,-0.57539678,-126.61891,840.93303)"
       cx="21.305288"
       cy="365.37674"
       fx="21.305288"
       fy="365.37674"
       r="202.82248" />
    <radialGradient
       inkscape:collect="always"
       xlink:href="#linearGradient3142"
       id="radialGradient4173"
       gradientUnits="userSpaceOnUse"
       gradientTransform="matrix(-0.14374152,-0.00156142,0.00624972,-0.57539678,527.05492,-404.43553)"
       cx="21.305288"
       cy="365.37674"
       fx="21.305288"
       fy="365.37674"
       r="202.82248" />
    <linearGradient
       inkscape:collect="always"
       xlink:href="#linearGradient3142"
       id="linearGradient4175"
       gradientUnits="userSpaceOnUse"
       gradientTransform="matrix(0.98674174,0,0,1.0365561,-570.74955,-70.130314)"
       x1="262.40158"
       y1="588.40576"
       x2="262.40158"
       y2="620.45441" />
    <linearGradient
       inkscape:collect="always"
       xlink:href="#linearGradient3142"
       id="linearGradient4177"
       gradientUnits="userSpaceOnUse"
       gradientTransform="matrix(0.98674174,0,0,1.0365561,82.924309,-1315.4989)"
       x1="262.40158"
       y1="588.40576"
       x2="262.40158"
       y2="619.23151" />
    <radialGradient
       inkscape:collect="always"
       xlink:href="#linearGradient3142"
       id="radialGradient4179"
       gradientUnits="userSpaceOnUse"
       gradientTransform="matrix(-0.14374152,-0.00156142,0.00624972,-0.57539678,-126.61891,840.93303)"
       cx="21.305288"
       cy="365.37674"
       fx="21.305288"
       fy="365.37674"
       r="202.82248" />
    <radialGradient
       inkscape:collect="always"
       xlink:href="#linearGradient3142"
       id="radialGradient4181"
       gradientUnits="userSpaceOnUse"
       gradientTransform="matrix(-0.14374152,-0.00156142,0.00624972,-0.57539678,527.05492,-404.43553)"
       cx="21.305288"
       cy="365.37674"
       fx="21.305288"
       fy="365.37674"
       r="202.82248" />
    <linearGradient
       inkscape:collect="always"
       xlink:href="#linearGradient3163"
       id="linearGradient4183"
       gradientUnits="userSpaceOnUse"
       gradientTransform="matrix(1.1389189,0,0,1,-72.089915,5.070562)"
       x1="263.66922"
       y1="306.98956"
       x2="263.66922"
       y2="412.20374" />
    <linearGradient
       inkscape:collect="always"
       xlink:href="#linearGradient3163"
       id="linearGradient4185"
       gradientUnits="userSpaceOnUse"
       gradientTransform="matrix(-1.1389189,0,0,-0.28527932,579.93382,531.58446)"
       x1="263.66922"
       y1="235.89346"
       x2="261.44318"
       y2="394.42972" />
    <linearGradient
       inkscape:collect="always"
       xlink:href="#linearGradient3163"
       id="linearGradient4187"
       gradientUnits="userSpaceOnUse"
       gradientTransform="matrix(1.1389189,0,0,1,-72.089915,5.070562)"
       x1="263.66922"
       y1="306.98956"
       x2="263.66922"
       y2="412.20374" />
    <linearGradient
       inkscape:collect="always"
       xlink:href="#linearGradient3163"
       id="linearGradient4189"
       gradientUnits="userSpaceOnUse"
       gradientTransform="matrix(-1.1389189,0,0,-0.28527932,579.93382,531.58446)"
       x1="263.66922"
       y1="235.89346"
       x2="261.44318"
       y2="394.42972" />
  </defs>
  <metadata
     id="metadata4">
    <rdf:RDF>
      <cc:Work
         rdf:about="">
        <dc:format>image/svg+xml</dc:format>
        <dc:type
           rdf:resource="http://purl.org/dc/dcmitype/StillImage" />
        <dc:title></dc:title>
      </cc:Work>
    </rdf:RDF>
  </metadata>
  <g
     transform="matrix(1.6946009,0,0,1.6946009,207.70951,183.7737)"
     id="g8134">
    <path
       d="m -328.69859,427.5155 68.49453,-68.5 7.5,0 7.5,0 -68.49453,68.5 -68.49454,68.5 -7.5,0 -7.5,0 68.49454,-68.5 z m 30,0 68.49453,-68.5 7.5,0 7.5,0 -68.49453,68.5 -68.49453,68.5 -7.5,0 -7.5,0 68.49453,-68.5 z m 30,0 68.49453,-68.5 7.5,0 7.5,0 -68.49453,68.5 -68.49453,68.5 -7.5,0 -7.5,0 68.49453,-68.5 z m 30,0 68.49453,-68.5 7.5,0 7.5,0 -68.49453,68.5 -68.49453,68.5 -7.5,0 -7.5,0 68.49453,-68.5 z m 30,0 68.49453,-68.5 7.5,0 7.5,0 -68.49453,68.5 -68.49453,68.5 -7.5,0 -7.5,0 68.49453,-68.5 z m 30,0 68.49453,-68.5 7.5,0 7.500001,0 -68.494531,68.5 -68.49453,68.5 -7.5,0 -7.5,0 68.49453,-68.5 z m 30,0 68.494531,-68.5 7.5,0 7.5,0 -68.494531,68.5 -68.49453,68.5 -7.5,0 -7.5,0 68.49453,-68.5 z m 30,0 68.494531,-68.5 7.5,0 7.5,0 -68.494531,68.5 -68.49453,68.5 -7.5,0 -7.5,0 68.49453,-68.5 z m 30.000001,0 c 37.67199,-37.675 69.05826,-68.5 69.74726,-68.5 0.87009,0 1.25274,1.90998 1.25274,6.253 l 0,6.253 -62.25298,62.247 -62.252971,62.247 -7.49429,0 -7.49429,0 68.494531,-68.5 z m 16.00344,13.99041 54.49656,-54.50959 0.29781,7.20787 0.29781,7.20786 -47.29386,47.30172 -47.293871,47.30173 -7.5005,0 -7.50051,0 54.496561,-54.50959 z m 15.00131,14.9987 39.49525,-39.5109 0.29778,7.20742 0.29777,7.20742 -32.292,32.30347 -32.29201,32.30348 -7.50102,0 -7.50103,0 39.49526,-39.51089 z m 15.0029,14.99708 24.49235,-24.5138 0.29768,7.20564 0.29768,7.20564 -17.28696,17.30817 -17.28697,17.30816 -7.50306,0 -7.50306,0 24.49234,-24.51381 z m 15.0121,14.98782 9.48025,-9.52599 0.29655,7.16198 c 0.2591,6.25723 0.016,7.46063 -1.92431,9.52599 -1.95482,2.08082 -3.12602,2.36401 -9.7768,2.36401 l -7.55594,0 9.48025,-9.52599 z m -384.019761,1.52016 0,-7.50032 60.80089,-60.79475 60.80088,-60.79476 7.20803,0.29783 7.20802,0.29783 -68.00891,67.99724 -68.00891,67.99725 0,-7.50032 z m 0,-30.00178 0,-7.50054 45.80186,-45.79374 45.80185,-45.79373 7.20783,0.29781 7.20784,0.29781 -53.00969,52.99646 -53.00969,52.99646 0,-7.50053 z m 0,-30.00337 0,-7.50112 30.80374,-30.79172 30.80375,-30.79172 7.20734,0.29777 7.20734,0.29777 -38.01108,37.99507 -38.01109,37.99506 0,-7.50111 z m 0,-30.00889 0,-7.50357 15.8091,-15.78594 15.8091,-15.78595 7.20522,0.29767 7.2052,0.29766 -23.01432,22.99185 -23.0143,22.99184 0,-7.50356 z m 0,-30.28497 c 0,-5.58811 0.37736,-7.90274 1.34921,-8.27567 0.74207,-0.28476 4.35572,-0.38314 8.03033,-0.21862 l 6.68111,0.29913 -8.03033,7.97654 -8.03032,7.97654 0,-7.75792 z"
       transform="translate(299.45208,-455.33869)"
       clip-path="url(#clipPath3828)"
       id="path8003"
       style="fill:#44aa00"
       inkscape:connector-curvature="0" />
    <path
       d="m -343.45134,427.51549 68.49453,-68.5 7.5,0 7.5,0 -68.49453,68.5 -68.49454,68.5 -7.5,0 -7.49999,0 68.49453,-68.5 z m 30,0 68.49453,-68.5 7.5,0 7.5,0 -68.49453,68.5 -68.49453,68.5 -7.50001,0 -7.49999,0 68.49453,-68.5 z m 30,0 68.49453,-68.5 7.5,0 7.5,0 -68.49453,68.5 -68.49453,68.5 -7.5,0 -7.5,0 68.49453,-68.5 z m 30,0 68.49453,-68.5 7.5,0 7.5,0 -68.49453,68.5 -68.49453,68.5 -7.5,0 -7.5,0 68.49453,-68.5 z m 30,0 68.49453,-68.5 7.5,0 7.5,0 -68.49453,68.5 -68.49453,68.5 -7.5,0 -7.5,0 68.49453,-68.5 z m 30,0 68.49453,-68.5 7.5,0 7.5,0 -68.49453,68.5 -68.49453,68.5 -7.5,0 -7.5,0 68.49453,-68.5 z m 30,0 68.494531,-68.5 7.5,0 7.5,0 -68.494531,68.5 -68.49453,68.5 -7.5,0 -7.5,0 68.49453,-68.5 z m 30,0 68.494531,-68.5 7.5,0 7.5,0 -68.494531,68.5 -68.49453,68.5 -7.5,0 -7.5,0 68.49453,-68.5 z m 30,0 68.494531,-68.5 7.5,0 7.5,0 -68.49453,68.5 -68.494531,68.5 -7.5,0 -7.5,0 68.49453,-68.5 z m 23.503021,6.49083 61.99698,-62.00917 0.29782,7.20796 0.29782,7.20797 -54.79441,54.8012 -54.794411,54.80121 -7.50039,0 -7.50038,0 61.996971,-62.00917 z m 15.00097,14.99903 46.99601,-47.01014 0.2978,7.2077 0.29779,7.2077 -39.79311,39.80244 -39.7931,39.80244 -7.500701,0 -7.5007,0 46.996011,-47.01014 z m 15.00187,14.99813 31.99414,-32.01201 0.29774,7.20688 0.29775,7.20689 -24.79025,24.80512 -24.79024,24.80513 -7.50164,0 -7.50164,0 31.99414,-32.01201 z m 15.00517,14.99482 16.98897,-17.0172 0.29753,7.20159 0.29753,7.2016 -9.77877,9.8156 -9.77877,9.8156 -7.50773,0 -7.50773,0 16.98897,-17.01719 z m 14.98897,15.01719 c 0.99549,-1.1 1.96523,-2 2.15499,-2 0.18975,0 0.34501,0.9 0.34501,2 0,1.38128 -0.66667,2 -2.15499,2 -2.09164,0 -2.10178,-0.0588 -0.34501,-2 z m -391.500011,-21.0066 0,-7.50041 53.3013,-53.29432 53.30131,-53.29431 7.20795,0.29782 7.20794,0.29782 -60.50925,60.4969 -60.50925,60.4969 0,-7.5004 z m 0,-30.00239 0,-7.50075 38.30262,-38.29292 38.30261,-38.29293 7.20766,0.2978 7.20765,0.29779 -45.51027,45.49588 -45.51027,45.49588 0,-7.50075 z m 0,-30.00514 0,-7.50183 23.30558,-23.28975 23.30559,-23.28976 7.20671,0.29774 7.20672,0.29773 -30.5123,30.49385 -30.5123,30.49385 0,-7.50183 z m 0,-30.02005 0,-7.50998 8.3186,-8.27539 8.31861,-8.27539 7.19966,0.29747 7.19967,0.29747 -15.51828,15.4879 -15.51826,15.4879 0,-7.50998 z"
       transform="translate(299.57571,-455.3387)"
       clip-path="url(#clipPath3824)"
       id="path8005"
       style="fill:#225500"
       inkscape:connector-curvature="0" />
  </g>
  <g
     transform="matrix(1.6946009,0,0,1.6946009,-317.40106,-1258.1773)"
     id="g8007"
     inkscape:export-filename="/home/ezh/workspace/DocumentumElasticusUIOffice/src/main/contrib/image_sources/signup.png"
     inkscape:export-xdpi="20.223146"
     inkscape:export-ydpi="20.223146">
    <g
       transform="matrix(0.95984648,0,0,0.90010573,169.90774,-232.71612)"
       id="g8009"
       style="opacity:0.66000001">
      <g
         transform="matrix(0.96685437,0,0,0.92197935,96.41794,457.87028)"
         id="g8011">
        <rect
           width="405.64496"
           height="149.35332"
           ry="12.123334"
           x="-59.579105"
           y="702.08777"
           id="rect8013"
           style="opacity:0.33000004;fill:url(#radialGradient4163);fill-opacity:1;stroke:none" />
        <rect
           width="405.64496"
           height="149.35332"
           ry="12.123334"
           x="-59.579105"
           y="702.08777"
           id="rect8015"
           style="opacity:0.33000004;fill:url(#radialGradient4165);fill-opacity:1;stroke:none" />
      </g>
      <g
         transform="translate(532.40901,559.02947)"
         id="g8017">
        <g
           transform="matrix(1.025336,0,0,0.98362361,36.802617,1.3238442)"
           id="g8019">
          <rect
             width="400.26682"
             height="154.8131"
             ry="12.566516"
             x="-526.97034"
             y="545.27777"
             id="rect8021"
             style="opacity:0.55;fill:url(#linearGradient4167);fill-opacity:1;stroke:none" />
          <rect
             width="400.26682"
             height="154.8131"
             ry="12.566516"
             x="126.70351"
             y="-700.09082"
             transform="scale(-1,-1)"
             id="rect8023"
             style="opacity:0.55;fill:url(#linearGradient4169);fill-opacity:1;stroke:none" />
          <rect
             width="400.26682"
             height="154.8131"
             ry="12.566516"
             x="-526.97034"
             y="545.27777"
             id="rect8025"
             style="opacity:0.55;fill:url(#radialGradient4171);fill-opacity:1;stroke:none" />
          <rect
             width="400.26682"
             height="154.8131"
             ry="12.566516"
             x="126.70351"
             y="-700.09082"
             transform="scale(-1,-1)"
             id="rect8027"
             style="opacity:0.55;fill:url(#radialGradient4173);fill-opacity:1;stroke:none" />
        </g>
        <g
           transform="matrix(1.025336,0,0,0.98362361,36.802617,1.3238442)"
           id="g8029">
          <rect
             width="400.26682"
             height="154.8131"
             ry="12.566516"
             x="-526.97034"
             y="545.27777"
             id="rect8031"
             style="opacity:0.55;fill:url(#linearGradient4175);fill-opacity:1;stroke:none" />
          <rect
             width="400.26682"
             height="154.8131"
             ry="12.566516"
             x="126.70351"
             y="-700.09082"
             transform="scale(-1,-1)"
             id="rect8033"
             style="opacity:0.55;fill:url(#linearGradient4177);fill-opacity:1;stroke:none" />
          <rect
             width="400.26682"
             height="154.8131"
             ry="12.566516"
             x="-526.97034"
             y="545.27777"
             id="rect8035"
             style="opacity:0.55;fill:url(#radialGradient4179);fill-opacity:1;stroke:none" />
          <rect
             width="400.26682"
             height="154.8131"
             ry="12.566516"
             x="126.70351"
             y="-700.09082"
             transform="scale(-1,-1)"
             id="rect8037"
             style="opacity:0.55;fill:url(#radialGradient4181);fill-opacity:1;stroke:none" />
        </g>
      </g>
      <g
         transform="translate(-19.456709,793.81513)"
         id="g8039">
        <path
           d="m 395.82779,320.50806 c -102.70357,2.98901 -205.95937,-2.94766 -308.575836,3.15625 -16.190643,4.00145 -19.320836,24.05014 -10.001131,34.875 9.793746,11.43814 28.045977,9.27286 42.269407,12.30669 100.01778,13.4982 201.98787,11.91246 302.36033,3.03706 16.73402,-8.63312 17.41036,-30.58485 7.15384,-43.59375 -7.76556,-8.63404 -21.44154,-10.13861 -33.20661,-9.78125 z"
           id="path8041"
           style="fill:url(#linearGradient4183);fill-opacity:1;stroke:none"
           inkscape:connector-curvature="0" />
        <path
           d="m 112.01612,441.59667 c 102.70357,-0.85271 205.95937,0.8409 308.57584,-0.90042 16.19064,-1.14153 19.32083,-6.861 10.00113,-9.94911 -9.79375,-3.26307 -28.04598,-2.64536 -42.26941,-3.51085 -100.01778,-3.85075 -201.98787,-3.39838 -302.36033,-0.86641 -16.73402,2.46285 -17.41036,8.72523 -7.15384,12.4364 7.76556,2.46311 21.44154,2.89233 33.20661,2.79039 z"
           id="path8043"
           style="fill:url(#linearGradient4185);fill-opacity:1;stroke:none"
           inkscape:connector-curvature="0" />
      </g>
    </g>
    <g
       transform="matrix(0.95984648,0,0,0.90010573,150.87591,481.89348)"
       id="g8045"
       style="opacity:0.66000001">
      <path
         d="m 395.82779,320.50806 c -102.70357,2.98901 -205.95937,-2.94766 -308.575836,3.15625 -16.190643,4.00145 -19.320836,24.05014 -10.001131,34.875 9.793746,11.43814 28.045977,9.27286 42.269407,12.30669 100.01778,13.4982 201.98787,11.91246 302.36033,3.03706 16.73402,-8.63312 17.41036,-30.58485 7.15384,-43.59375 -7.76556,-8.63404 -21.44154,-10.13861 -33.20661,-9.78125 z"
         id="path8047"
         style="fill:url(#linearGradient4187);fill-opacity:1;stroke:none"
         inkscape:connector-curvature="0" />
      <path
         d="m 112.01612,441.59667 c 102.70357,-0.85271 205.95937,0.8409 308.57584,-0.90042 16.19064,-1.14153 19.32083,-6.861 10.00113,-9.94911 -9.79375,-3.26307 -28.04598,-2.64536 -42.26941,-3.51085 -100.01778,-3.85075 -201.98787,-3.39838 -302.36033,-0.86641 -16.73402,2.46285 -17.41036,8.72523 -7.15384,12.4364 7.76556,2.46311 21.44154,2.89233 33.20661,2.79039 z"
         id="path8049"
         style="fill:url(#linearGradient4189);fill-opacity:1;stroke:none"
         inkscape:connector-curvature="0" />
    </g>
  </g>
  <g
     id="g8277"
     transform="matrix(1.7007747,0,0,1.7007747,-257.80317,755.76869)">
    <g
       id="g8273"
       transform="translate(-2.6524137,0.4776802)">
      <path
         inkscape:connector-curvature="0"
         style="fill:#d40000"
         id="path8140"
         clip-path="url(#clipPath3828)"
         transform="translate(575.01436,-628.33564)"
         d="m -328.69859,427.5155 68.49453,-68.5 7.5,0 7.5,0 -68.49453,68.5 -68.49454,68.5 -7.5,0 -7.5,0 68.49454,-68.5 z m 30,0 68.49453,-68.5 7.5,0 7.5,0 -68.49453,68.5 -68.49453,68.5 -7.5,0 -7.5,0 68.49453,-68.5 z m 30,0 68.49453,-68.5 7.5,0 7.5,0 -68.49453,68.5 -68.49453,68.5 -7.5,0 -7.5,0 68.49453,-68.5 z m 30,0 68.49453,-68.5 7.5,0 7.5,0 -68.49453,68.5 -68.49453,68.5 -7.5,0 -7.5,0 68.49453,-68.5 z m 30,0 68.49453,-68.5 7.5,0 7.5,0 -68.49453,68.5 -68.49453,68.5 -7.5,0 -7.5,0 68.49453,-68.5 z m 30,0 68.49453,-68.5 7.5,0 7.500001,0 -68.494531,68.5 -68.49453,68.5 -7.5,0 -7.5,0 68.49453,-68.5 z m 30,0 68.494531,-68.5 7.5,0 7.5,0 -68.494531,68.5 -68.49453,68.5 -7.5,0 -7.5,0 68.49453,-68.5 z m 30,0 68.494531,-68.5 7.5,0 7.5,0 -68.494531,68.5 -68.49453,68.5 -7.5,0 -7.5,0 68.49453,-68.5 z m 30.000001,0 c 37.67199,-37.675 69.05826,-68.5 69.74726,-68.5 0.87009,0 1.25274,1.90998 1.25274,6.253 l 0,6.253 -62.25298,62.247 -62.252971,62.247 -7.49429,0 -7.49429,0 68.494531,-68.5 z m 16.00344,13.99041 54.49656,-54.50959 0.29781,7.20787 0.29781,7.20786 -47.29386,47.30172 -47.293871,47.30173 -7.5005,0 -7.50051,0 54.496561,-54.50959 z m 15.00131,14.9987 39.49525,-39.5109 0.29778,7.20742 0.29777,7.20742 -32.292,32.30347 -32.29201,32.30348 -7.50102,0 -7.50103,0 39.49526,-39.51089 z m 15.0029,14.99708 24.49235,-24.5138 0.29768,7.20564 0.29768,7.20564 -17.28696,17.30817 -17.28697,17.30816 -7.50306,0 -7.50306,0 24.49234,-24.51381 z m 15.0121,14.98782 9.48025,-9.52599 0.29655,7.16198 c 0.2591,6.25723 0.016,7.46063 -1.92431,9.52599 -1.95482,2.08082 -3.12602,2.36401 -9.7768,2.36401 l -7.55594,0 9.48025,-9.52599 z m -384.019761,1.52016 0,-7.50032 60.80089,-60.79475 60.80088,-60.79476 7.20803,0.29783 7.20802,0.29783 -68.00891,67.99724 -68.00891,67.99725 0,-7.50032 z m 0,-30.00178 0,-7.50054 45.80186,-45.79374 45.80185,-45.79373 7.20783,0.29781 7.20784,0.29781 -53.00969,52.99646 -53.00969,52.99646 0,-7.50053 z m 0,-30.00337 0,-7.50112 30.80374,-30.79172 30.80375,-30.79172 7.20734,0.29777 7.20734,0.29777 -38.01108,37.99507 -38.01109,37.99506 0,-7.50111 z m 0,-30.00889 0,-7.50357 15.8091,-15.78594 15.8091,-15.78595 7.20522,0.29767 7.2052,0.29766 -23.01432,22.99185 -23.0143,22.99184 0,-7.50356 z m 0,-30.28497 c 0,-5.58811 0.37736,-7.90274 1.34921,-8.27567 0.74207,-0.28476 4.35572,-0.38314 8.03033,-0.21862 l 6.68111,0.29913 -8.03033,7.97654 -8.03032,7.97654 0,-7.75792 z" />
      <path
         inkscape:connector-curvature="0"
         style="fill:#800000"
         id="path8142"
         clip-path="url(#clipPath3824)"
         transform="translate(575.13799,-628.33565)"
         d="m -343.45134,427.51549 68.49453,-68.5 7.5,0 7.5,0 -68.49453,68.5 -68.49454,68.5 -7.5,0 -7.49999,0 68.49453,-68.5 z m 30,0 68.49453,-68.5 7.5,0 7.5,0 -68.49453,68.5 -68.49453,68.5 -7.50001,0 -7.49999,0 68.49453,-68.5 z m 30,0 68.49453,-68.5 7.5,0 7.5,0 -68.49453,68.5 -68.49453,68.5 -7.5,0 -7.5,0 68.49453,-68.5 z m 30,0 68.49453,-68.5 7.5,0 7.5,0 -68.49453,68.5 -68.49453,68.5 -7.5,0 -7.5,0 68.49453,-68.5 z m 30,0 68.49453,-68.5 7.5,0 7.5,0 -68.49453,68.5 -68.49453,68.5 -7.5,0 -7.5,0 68.49453,-68.5 z m 30,0 68.49453,-68.5 7.5,0 7.5,0 -68.49453,68.5 -68.49453,68.5 -7.5,0 -7.5,0 68.49453,-68.5 z m 30,0 68.494531,-68.5 7.5,0 7.5,0 -68.494531,68.5 -68.49453,68.5 -7.5,0 -7.5,0 68.49453,-68.5 z m 30,0 68.494531,-68.5 7.5,0 7.5,0 -68.494531,68.5 -68.49453,68.5 -7.5,0 -7.5,0 68.49453,-68.5 z m 30,0 68.494531,-68.5 7.5,0 7.5,0 -68.49453,68.5 -68.494531,68.5 -7.5,0 -7.5,0 68.49453,-68.5 z m 23.503021,6.49083 61.99698,-62.00917 0.29782,7.20796 0.29782,7.20797 -54.79441,54.8012 -54.794411,54.80121 -7.50039,0 -7.50038,0 61.996971,-62.00917 z m 15.00097,14.99903 46.99601,-47.01014 0.2978,7.2077 0.29779,7.2077 -39.79311,39.80244 -39.7931,39.80244 -7.500701,0 -7.5007,0 46.996011,-47.01014 z m 15.00187,14.99813 31.99414,-32.01201 0.29774,7.20688 0.29775,7.20689 -24.79025,24.80512 -24.79024,24.80513 -7.50164,0 -7.50164,0 31.99414,-32.01201 z m 15.00517,14.99482 16.98897,-17.0172 0.29753,7.20159 0.29753,7.2016 -9.77877,9.8156 -9.77877,9.8156 -7.50773,0 -7.50773,0 16.98897,-17.01719 z m 14.98897,15.01719 c 0.99549,-1.1 1.96523,-2 2.15499,-2 0.18975,0 0.34501,0.9 0.34501,2 0,1.38128 -0.66667,2 -2.15499,2 -2.09164,0 -2.10178,-0.0588 -0.34501,-2 z m -391.500011,-21.0066 0,-7.50041 53.3013,-53.29432 53.30131,-53.29431 7.20795,0.29782 7.20794,0.29782 -60.50925,60.4969 -60.50925,60.4969 0,-7.5004 z m 0,-30.00239 0,-7.50075 38.30262,-38.29292 38.30261,-38.29293 7.20766,0.2978 7.20765,0.29779 -45.51027,45.49588 -45.51027,45.49588 0,-7.50075 z m 0,-30.00514 0,-7.50183 23.30558,-23.28975 23.30559,-23.28976 7.20671,0.29774 7.20672,0.29773 -30.5123,30.49385 -30.5123,30.49385 0,-7.50183 z m 0,-30.02005 0,-7.50998 8.3186,-8.27539 8.31861,-8.27539 7.19966,0.29747 7.19967,0.29747 -15.51828,15.4879 -15.51826,15.4879 0,-7.50998 z" />
    </g>
    <g
       id="g8144"
       transform="translate(-36.962841,-1023.4282)">
      <g
         style="opacity:0.66000001"
         id="g8146"
         transform="matrix(0.95984648,0,0,0.90010573,169.90774,-232.71612)">
        <g
           id="g8148"
           transform="matrix(0.96685437,0,0,0.92197935,96.41794,457.87028)">
          <rect
             style="opacity:0.33000004;fill:url(#radialGradient8304);fill-opacity:1;stroke:none"
             id="rect8150"
             y="702.08777"
             x="-59.579105"
             ry="12.123334"
             height="149.35332"
             width="405.64496" />
          <rect
             style="opacity:0.33000004;fill:url(#radialGradient8306);fill-opacity:1;stroke:none"
             id="rect8152"
             y="702.08777"
             x="-59.579105"
             ry="12.123334"
             height="149.35332"
             width="405.64496" />
        </g>
        <g
           id="g8154"
           transform="translate(532.40901,559.02947)">
          <g
             id="g8156"
             transform="matrix(1.025336,0,0,0.98362361,36.802617,1.3238442)">
            <rect
               style="opacity:0.55;fill:url(#linearGradient8308);fill-opacity:1;stroke:none"
               id="rect8158"
               y="545.27777"
               x="-526.97034"
               ry="12.566516"
               height="154.8131"
               width="400.26682" />
            <rect
               style="opacity:0.55;fill:url(#linearGradient8310);fill-opacity:1;stroke:none"
               id="rect8160"
               transform="scale(-1,-1)"
               y="-700.09082"
               x="126.70351"
               ry="12.566516"
               height="154.8131"
               width="400.26682" />
            <rect
               style="opacity:0.55;fill:url(#radialGradient8312);fill-opacity:1;stroke:none"
               id="rect8162"
               y="545.27777"
               x="-526.97034"
               ry="12.566516"
               height="154.8131"
               width="400.26682" />
            <rect
               style="opacity:0.55;fill:url(#radialGradient8314);fill-opacity:1;stroke:none"
               id="rect8164"
               transform="scale(-1,-1)"
               y="-700.09082"
               x="126.70351"
               ry="12.566516"
               height="154.8131"
               width="400.26682" />
          </g>
          <g
             id="g8166"
             transform="matrix(1.025336,0,0,0.98362361,36.802617,1.3238442)">
            <rect
               style="opacity:0.55;fill:url(#linearGradient8316);fill-opacity:1;stroke:none"
               id="rect8168"
               y="545.27777"
               x="-526.97034"
               ry="12.566516"
               height="154.8131"
               width="400.26682" />
            <rect
               style="opacity:0.55;fill:url(#linearGradient8318);fill-opacity:1;stroke:none"
               id="rect8170"
               transform="scale(-1,-1)"
               y="-700.09082"
               x="126.70351"
               ry="12.566516"
               height="154.8131"
               width="400.26682" />
            <rect
               style="opacity:0.55;fill:url(#radialGradient8320);fill-opacity:1;stroke:none"
               id="rect8172"
               y="545.27777"
               x="-526.97034"
               ry="12.566516"
               height="154.8131"
               width="400.26682" />
            <rect
               style="opacity:0.55;fill:url(#radialGradient8322);fill-opacity:1;stroke:none"
               id="rect8174"
               transform="scale(-1,-1)"
               y="-700.09082"
               x="126.70351"
               ry="12.566516"
               height="154.8131"
               width="400.26682" />
          </g>
        </g>
        <g
           id="g8176"
           transform="translate(-19.456709,793.81513)">
          <path
             inkscape:connector-curvature="0"
             style="fill:url(#linearGradient8324);fill-opacity:1;stroke:none"
             id="path8178"
             d="m 395.82779,320.50806 c -102.70357,2.98901 -205.95937,-2.94766 -308.575836,3.15625 -16.190643,4.00145 -19.320836,24.05014 -10.001131,34.875 9.793746,11.43814 28.045977,9.27286 42.269407,12.30669 100.01778,13.4982 201.98787,11.91246 302.36033,3.03706 16.73402,-8.63312 17.41036,-30.58485 7.15384,-43.59375 -7.76556,-8.63404 -21.44154,-10.13861 -33.20661,-9.78125 z" />
          <path
             inkscape:connector-curvature="0"
             style="fill:url(#linearGradient8326);fill-opacity:1;stroke:none"
             id="path8180"
             d="m 112.01612,441.59667 c 102.70357,-0.85271 205.95937,0.8409 308.57584,-0.90042 16.19064,-1.14153 19.32083,-6.861 10.00113,-9.94911 -9.79375,-3.26307 -28.04598,-2.64536 -42.26941,-3.51085 -100.01778,-3.85075 -201.98787,-3.39838 -302.36033,-0.86641 -16.73402,2.46285 -17.41036,8.72523 -7.15384,12.4364 7.76556,2.46311 21.44154,2.89233 33.20661,2.79039 z" />
        </g>
      </g>
      <g
         style="opacity:0.66000001"
         id="g8182"
         transform="matrix(0.95984648,0,0,0.90010573,150.87591,481.89348)">
        <path
           inkscape:connector-curvature="0"
           style="fill:url(#linearGradient8328);fill-opacity:1;stroke:none"
           id="path8184"
           d="m 395.82779,320.50806 c -102.70357,2.98901 -205.95937,-2.94766 -308.575836,3.15625 -16.190643,4.00145 -19.320836,24.05014 -10.001131,34.875 9.793746,11.43814 28.045977,9.27286 42.269407,12.30669 100.01778,13.4982 201.98787,11.91246 302.36033,3.03706 16.73402,-8.63312 17.41036,-30.58485 7.15384,-43.59375 -7.76556,-8.63404 -21.44154,-10.13861 -33.20661,-9.78125 z" />
        <path
           inkscape:connector-curvature="0"
           style="fill:url(#linearGradient8330);fill-opacity:1;stroke:none"
           id="path8186"
           d="m 112.01612,441.59667 c 102.70357,-0.85271 205.95937,0.8409 308.57584,-0.90042 16.19064,-1.14153 19.32083,-6.861 10.00113,-9.94911 -9.79375,-3.26307 -28.04598,-2.64536 -42.26941,-3.51085 -100.01778,-3.85075 -201.98787,-3.39838 -302.36033,-0.86641 -16.73402,2.46285 -17.41036,8.72523 -7.15384,12.4364 7.76556,2.46311 21.44154,2.89233 33.20661,2.79039 z" />
      </g>
    </g>
  </g>
  <g
     id="g8471"
     transform="matrix(1.6884272,0,0,1.6884272,162.2116,747.1391)">
    <g
       id="g8467"
       transform="translate(-4.7519622,-6.6637565)">
      <path
         inkscape:connector-curvature="0"
         style="fill:#d40000"
         id="path8336"
         clip-path="url(#clipPath3828)"
         transform="translate(329.51098,-452.17195)"
         d="m -328.69859,427.5155 68.49453,-68.5 7.5,0 7.5,0 -68.49453,68.5 -68.49454,68.5 -7.5,0 -7.5,0 68.49454,-68.5 z m 30,0 68.49453,-68.5 7.5,0 7.5,0 -68.49453,68.5 -68.49453,68.5 -7.5,0 -7.5,0 68.49453,-68.5 z m 30,0 68.49453,-68.5 7.5,0 7.5,0 -68.49453,68.5 -68.49453,68.5 -7.5,0 -7.5,0 68.49453,-68.5 z m 30,0 68.49453,-68.5 7.5,0 7.5,0 -68.49453,68.5 -68.49453,68.5 -7.5,0 -7.5,0 68.49453,-68.5 z m 30,0 68.49453,-68.5 7.5,0 7.5,0 -68.49453,68.5 -68.49453,68.5 -7.5,0 -7.5,0 68.49453,-68.5 z m 30,0 68.49453,-68.5 7.5,0 7.500001,0 -68.494531,68.5 -68.49453,68.5 -7.5,0 -7.5,0 68.49453,-68.5 z m 30,0 68.494531,-68.5 7.5,0 7.5,0 -68.494531,68.5 -68.49453,68.5 -7.5,0 -7.5,0 68.49453,-68.5 z m 30,0 68.494531,-68.5 7.5,0 7.5,0 -68.494531,68.5 -68.49453,68.5 -7.5,0 -7.5,0 68.49453,-68.5 z m 30.000001,0 c 37.67199,-37.675 69.05826,-68.5 69.74726,-68.5 0.87009,0 1.25274,1.90998 1.25274,6.253 l 0,6.253 -62.25298,62.247 -62.252971,62.247 -7.49429,0 -7.49429,0 68.494531,-68.5 z m 16.00344,13.99041 54.49656,-54.50959 0.29781,7.20787 0.29781,7.20786 -47.29386,47.30172 -47.293871,47.30173 -7.5005,0 -7.50051,0 54.496561,-54.50959 z m 15.00131,14.9987 39.49525,-39.5109 0.29778,7.20742 0.29777,7.20742 -32.292,32.30347 -32.29201,32.30348 -7.50102,0 -7.50103,0 39.49526,-39.51089 z m 15.0029,14.99708 24.49235,-24.5138 0.29768,7.20564 0.29768,7.20564 -17.28696,17.30817 -17.28697,17.30816 -7.50306,0 -7.50306,0 24.49234,-24.51381 z m 15.0121,14.98782 9.48025,-9.52599 0.29655,7.16198 c 0.2591,6.25723 0.016,7.46063 -1.92431,9.52599 -1.95482,2.08082 -3.12602,2.36401 -9.7768,2.36401 l -7.55594,0 9.48025,-9.52599 z m -384.019761,1.52016 0,-7.50032 60.80089,-60.79475 60.80088,-60.79476 7.20803,0.29783 7.20802,0.29783 -68.00891,67.99724 -68.00891,67.99725 0,-7.50032 z m 0,-30.00178 0,-7.50054 45.80186,-45.79374 45.80185,-45.79373 7.20783,0.29781 7.20784,0.29781 -53.00969,52.99646 -53.00969,52.99646 0,-7.50053 z m 0,-30.00337 0,-7.50112 30.80374,-30.79172 30.80375,-30.79172 7.20734,0.29777 7.20734,0.29777 -38.01108,37.99507 -38.01109,37.99506 0,-7.50111 z m 0,-30.00889 0,-7.50357 15.8091,-15.78594 15.8091,-15.78595 7.20522,0.29767 7.2052,0.29766 -23.01432,22.99185 -23.0143,22.99184 0,-7.50356 z m 0,-30.28497 c 0,-5.58811 0.37736,-7.90274 1.34921,-8.27567 0.74207,-0.28476 4.35572,-0.38314 8.03033,-0.21862 l 6.68111,0.29913 -8.03033,7.97654 -8.03032,7.97654 0,-7.75792 z" />
      <path
         inkscape:connector-curvature="0"
         style="fill:#ff0606;fill-opacity:1"
         id="path8338"
         clip-path="url(#clipPath3824)"
         transform="translate(329.63461,-452.17196)"
         d="m -343.45134,427.51549 68.49453,-68.5 7.5,0 7.5,0 -68.49453,68.5 -68.49454,68.5 -7.5,0 -7.49999,0 68.49453,-68.5 z m 30,0 68.49453,-68.5 7.5,0 7.5,0 -68.49453,68.5 -68.49453,68.5 -7.50001,0 -7.49999,0 68.49453,-68.5 z m 30,0 68.49453,-68.5 7.5,0 7.5,0 -68.49453,68.5 -68.49453,68.5 -7.5,0 -7.5,0 68.49453,-68.5 z m 30,0 68.49453,-68.5 7.5,0 7.5,0 -68.49453,68.5 -68.49453,68.5 -7.5,0 -7.5,0 68.49453,-68.5 z m 30,0 68.49453,-68.5 7.5,0 7.5,0 -68.49453,68.5 -68.49453,68.5 -7.5,0 -7.5,0 68.49453,-68.5 z m 30,0 68.49453,-68.5 7.5,0 7.5,0 -68.49453,68.5 -68.49453,68.5 -7.5,0 -7.5,0 68.49453,-68.5 z m 30,0 68.494531,-68.5 7.5,0 7.5,0 -68.494531,68.5 -68.49453,68.5 -7.5,0 -7.5,0 68.49453,-68.5 z m 30,0 68.494531,-68.5 7.5,0 7.5,0 -68.494531,68.5 -68.49453,68.5 -7.5,0 -7.5,0 68.49453,-68.5 z m 30,0 68.494531,-68.5 7.5,0 7.5,0 -68.49453,68.5 -68.494531,68.5 -7.5,0 -7.5,0 68.49453,-68.5 z m 23.503021,6.49083 61.99698,-62.00917 0.29782,7.20796 0.29782,7.20797 -54.79441,54.8012 -54.794411,54.80121 -7.50039,0 -7.50038,0 61.996971,-62.00917 z m 15.00097,14.99903 46.99601,-47.01014 0.2978,7.2077 0.29779,7.2077 -39.79311,39.80244 -39.7931,39.80244 -7.500701,0 -7.5007,0 46.996011,-47.01014 z m 15.00187,14.99813 31.99414,-32.01201 0.29774,7.20688 0.29775,7.20689 -24.79025,24.80512 -24.79024,24.80513 -7.50164,0 -7.50164,0 31.99414,-32.01201 z m 15.00517,14.99482 16.98897,-17.0172 0.29753,7.20159 0.29753,7.2016 -9.77877,9.8156 -9.77877,9.8156 -7.50773,0 -7.50773,0 16.98897,-17.01719 z m 14.98897,15.01719 c 0.99549,-1.1 1.96523,-2 2.15499,-2 0.18975,0 0.34501,0.9 0.34501,2 0,1.38128 -0.66667,2 -2.15499,2 -2.09164,0 -2.10178,-0.0588 -0.34501,-2 z m -391.500011,-21.0066 0,-7.50041 53.3013,-53.29432 53.30131,-53.29431 7.20795,0.29782 7.20794,0.29782 -60.50925,60.4969 -60.50925,60.4969 0,-7.5004 z m 0,-30.00239 0,-7.50075 38.30262,-38.29292 38.30261,-38.29293 7.20766,0.2978 7.20765,0.29779 -45.51027,45.49588 -45.51027,45.49588 0,-7.50075 z m 0,-30.00514 0,-7.50183 23.30558,-23.28975 23.30559,-23.28976 7.20671,0.29774 7.20672,0.29773 -30.5123,30.49385 -30.5123,30.49385 0,-7.50183 z m 0,-30.02005 0,-7.50998 8.3186,-8.27539 8.31861,-8.27539 7.19966,0.29747 7.19967,0.29747 -15.51828,15.4879 -15.51826,15.4879 0,-7.50998 z" />
    </g>
    <g
       id="g7769"
       transform="translate(-284.56577,-854.40593)">
      <g
         style="opacity:0.66000001"
         id="g7771"
         transform="matrix(0.95984648,0,0,0.90010573,169.90774,-232.71612)">
        <g
           id="g7773"
           transform="matrix(0.96685437,0,0,0.92197935,96.41794,457.87028)">
          <rect
             style="opacity:0.33000004;fill:url(#radialGradient7866);fill-opacity:1;stroke:none"
             id="rect7775"
             y="702.08777"
             x="-59.579105"
             ry="12.123334"
             height="149.35332"
             width="405.64496" />
          <rect
             style="opacity:0.33000004;fill:url(#radialGradient7868);fill-opacity:1;stroke:none"
             id="rect7777"
             y="702.08777"
             x="-59.579105"
             ry="12.123334"
             height="149.35332"
             width="405.64496" />
        </g>
        <g
           id="g7779"
           transform="translate(532.40901,559.02947)">
          <g
             id="g7781"
             transform="matrix(1.025336,0,0,0.98362361,36.802617,1.3238442)">
            <rect
               style="opacity:0.55;fill:url(#linearGradient7870);fill-opacity:1;stroke:none"
               id="rect7783"
               y="545.27777"
               x="-526.97034"
               ry="12.566516"
               height="154.8131"
               width="400.26682" />
            <rect
               style="opacity:0.55;fill:url(#linearGradient7872);fill-opacity:1;stroke:none"
               id="rect7785"
               transform="scale(-1,-1)"
               y="-700.09082"
               x="126.70351"
               ry="12.566516"
               height="154.8131"
               width="400.26682" />
            <rect
               style="opacity:0.55;fill:url(#radialGradient7874);fill-opacity:1;stroke:none"
               id="rect7787"
               y="545.27777"
               x="-526.97034"
               ry="12.566516"
               height="154.8131"
               width="400.26682" />
            <rect
               style="opacity:0.55;fill:url(#radialGradient7876);fill-opacity:1;stroke:none"
               id="rect7789"
               transform="scale(-1,-1)"
               y="-700.09082"
               x="126.70351"
               ry="12.566516"
               height="154.8131"
               width="400.26682" />
          </g>
          <g
             id="g7791"
             transform="matrix(1.025336,0,0,0.98362361,36.802617,1.3238442)">
            <rect
               style="opacity:0.55;fill:url(#linearGradient7878);fill-opacity:1;stroke:none"
               id="rect7793"
               y="545.27777"
               x="-526.97034"
               ry="12.566516"
               height="154.8131"
               width="400.26682" />
            <rect
               style="opacity:0.55;fill:url(#linearGradient7880);fill-opacity:1;stroke:none"
               id="rect7795"
               transform="scale(-1,-1)"
               y="-700.09082"
               x="126.70351"
               ry="12.566516"
               height="154.8131"
               width="400.26682" />
            <rect
               style="opacity:0.55;fill:url(#radialGradient7882);fill-opacity:1;stroke:none"
               id="rect7797"
               y="545.27777"
               x="-526.97034"
               ry="12.566516"
               height="154.8131"
               width="400.26682" />
            <rect
               style="opacity:0.55;fill:url(#radialGradient7884);fill-opacity:1;stroke:none"
               id="rect7799"
               transform="scale(-1,-1)"
               y="-700.09082"
               x="126.70351"
               ry="12.566516"
               height="154.8131"
               width="400.26682" />
          </g>
        </g>
        <g
           id="g7801"
           transform="translate(-19.456709,793.81513)">
          <path
             inkscape:connector-curvature="0"
             style="fill:url(#linearGradient7886);fill-opacity:1;stroke:none"
             id="path7803"
             d="m 395.82779,320.50806 c -102.70357,2.98901 -205.95937,-2.94766 -308.575836,3.15625 -16.190643,4.00145 -19.320836,24.05014 -10.001131,34.875 9.793746,11.43814 28.045977,9.27286 42.269407,12.30669 100.01778,13.4982 201.98787,11.91246 302.36033,3.03706 16.73402,-8.63312 17.41036,-30.58485 7.15384,-43.59375 -7.76556,-8.63404 -21.44154,-10.13861 -33.20661,-9.78125 z" />
          <path
             inkscape:connector-curvature="0"
             style="fill:url(#linearGradient7888);fill-opacity:1;stroke:none"
             id="path7805"
             d="m 112.01612,441.59667 c 102.70357,-0.85271 205.95937,0.8409 308.57584,-0.90042 16.19064,-1.14153 19.32083,-6.861 10.00113,-9.94911 -9.79375,-3.26307 -28.04598,-2.64536 -42.26941,-3.51085 -100.01778,-3.85075 -201.98787,-3.39838 -302.36033,-0.86641 -16.73402,2.46285 -17.41036,8.72523 -7.15384,12.4364 7.76556,2.46311 21.44154,2.89233 33.20661,2.79039 z" />
        </g>
      </g>
      <g
         style="opacity:0.66000001"
         id="g7807"
         transform="matrix(0.95984648,0,0,0.90010573,150.87591,481.89348)">
        <path
           inkscape:connector-curvature="0"
           style="fill:url(#linearGradient7890);fill-opacity:1;stroke:none"
           id="path7809"
           d="m 395.82779,320.50806 c -102.70357,2.98901 -205.95937,-2.94766 -308.575836,3.15625 -16.190643,4.00145 -19.320836,24.05014 -10.001131,34.875 9.793746,11.43814 28.045977,9.27286 42.269407,12.30669 100.01778,13.4982 201.98787,11.91246 302.36033,3.03706 16.73402,-8.63312 17.41036,-30.58485 7.15384,-43.59375 -7.76556,-8.63404 -21.44154,-10.13861 -33.20661,-9.78125 z" />
        <path
           inkscape:connector-curvature="0"
           style="fill:url(#linearGradient7892);fill-opacity:1;stroke:none"
           id="path7811"
           d="m 112.01612,441.59667 c 102.70357,-0.85271 205.95937,0.8409 308.57584,-0.90042 16.19064,-1.14153 19.32083,-6.861 10.00113,-9.94911 -9.79375,-3.26307 -28.04598,-2.64536 -42.26941,-3.51085 -100.01778,-3.85075 -201.98787,-3.39838 -302.36033,-0.86641 -16.73402,2.46285 -17.41036,8.72523 -7.15384,12.4364 7.76556,2.46311 21.44154,2.89233 33.20661,2.79039 z" />
      </g>
    </g>
  </g>
  <text
     xml:space="preserve"
     style="font-size:40px;font-style:normal;font-variant:normal;font-weight:normal;font-stretch:normal;line-height:125%;letter-spacing:0px;word-spacing:0px;fill:#000000;fill-opacity:1;stroke:none;font-family:cmsy10;-inkscape-font-specification:cmsy10"
     x="126.15123"
     y="190.77977"
     id="text4246"
     sodipodi:linespacing="125%"><tspan
       sodipodi:role="line"
       id="tspan4248"
       x="126.15123"
       y="190.77977"
       style="font-size:144px;fill:#ffffff;fill-opacity:1;font-family:Impact;-inkscape-font-specification:Impact">SIGN UP</tspan></text>
</svg>
